<?xml version="1.0" encoding="utf-8"?>
<!-- Generator: Adobe Illustrator 17.0.0, SVG Export Plug-In . SVG Version: 6.00 Build 0)  -->
<!DOCTYPE svg PUBLIC "-//W3C//DTD SVG 1.1//EN" "http://www.w3.org/Graphics/SVG/1.1/DTD/svg11.dtd">
<svg version="1.1" id="layout1" xmlns="http://www.w3.org/2000/svg" xmlns:xlink="http://www.w3.org/1999/xlink" x="0px" y="0px"
	 width="122.553px" height="259px" viewBox="0 0 122.553 259" enable-background="new 0 0 122.553 259" xml:space="preserve">
<path fill="#545454" d="M259.792,137.91"/>
<g>
	<path fill="#CC66A1" d="M102.63,183.14c-1.154-5.023-4.041-15.824-5.048-20.633c-0.754-3.605-0.808-8.721-0.366-13.056
		c0.661-6.5,5.965-12.167,5.965-12.167s-0.837-2.066-3.307-3.979c-4.86,4.646-8.86,5.813-13.69,7.396
		c-1.691,0.554-6.999,1.302-6.999,1.302s-5.008,13.394-18.512,16.29c-13.503-2.896-18.661-16.29-18.661-16.29
		s-5.275-0.864-6.999-1.302c-1.292-0.328-8.348-3.421-13.177-5.933c-2.47,1.914-3.488,4.35-3.488,4.35s4.973,3.833,5.634,10.333
		c0.441,4.335,0.388,9.451-0.366,13.056c-1.007,4.81-3.894,15.61-5.048,20.633c-3.719,16.195,1.344,29.157,4.544,38.243
		c1.993,0.026,6.947-4.285,15.734-8.008c8.078-3.423,16.991-7.351,23.836-7.507c6.845,0.156,17.061,3.029,25.139,6.452
		c8.782,3.721,8.782,3.72,14.954,7.911C102.774,220.231,106.349,199.335,102.63,183.14z"/>
	<path fill="#B84F71" d="M104.217,186.569l-9.208-37.017c0,0,3.191,16.172,4.073,30.966c-2.734-1.109-7.252-2.572-14.677-4.455
		c-5.422-1.375,9.037,2.515,14.874,9.113c0.208,9.07-0.353,20.4-3.876,22.38c-4.164,2.34-14.915-4.562-35.75-2.562
		c26.5,1.062,38.844,14.096,41.688,15.238c2.103-2.113,2.091-5.652,2.817-13.596C105.119,196.118,104.217,186.569,104.217,186.569z"
		/>
	<g>
		<path fill="#EAAAC2" d="M31.84,211.201c-2.009,1.266-3,4-6.333,5.083c-1.191,0.387-2.395-7.813-1.618-9.931
			c0.467-1.271,3.097-2.635,4.02-3.448c-0.929-0.601-4.216,1.722-4.93,0.337s-1.075-5.129-0.572-6.375
			c0.703-1.74,0.853-3.039,0-4.25c-1.017-1.444-0.096-4.474,0.572-5.25c1.577-1.83,16.562-8.191,16.562-8.191
			s-15.108,2.837-17.759,5.941c1.252-5.187,4.914-29.41,4.914-29.41s-4.435,15.009-6.712,21.637
			c-1.383,4.027-1.341,7.972-1.828,10.398c-1.918,9.567,1.898,26.049,4.516,33.641c6.857-4.129,4.917-4.17,7.5-6.64
			c3.663-3.502,15.804-9.823,30.616-11.251C46.977,203.118,37.757,207.473,31.84,211.201z"/>
	</g>
	<path fill="#FFFFFF" d="M61.815,160.83c-11.304,0-20.5,9.196-20.5,20.5s9.196,20.5,20.5,20.5s20.5-9.196,20.5-20.5
		S73.119,160.83,61.815,160.83z M45.79,180.649c5.981-0.037,11.658-0.338,15.922-2.551c0.427,0.733,0.841,1.484,1.236,2.246
		c-6.092,3.503-9.594,8.863-11.55,13.179c-3.54-3.034-5.622-7.507-5.622-12.192C45.775,181.105,45.78,180.879,45.79,180.649z
		 M75.493,176.79c-2.598,0-5.329,0.513-8.13,1.528c-0.557-1.084-1.151-2.153-1.774-3.192c2.307-2.406,3.988-5.268,4.985-7.229
		c3.232,2.108,5.588,5.293,6.65,8.976C76.721,176.824,76.141,176.79,75.493,176.79z M62.834,170.969
		c-1.448-1.985-2.964-3.784-4.469-5.303c2.571-0.567,5.278-0.488,7.802,0.224C65.431,167.312,64.298,169.247,62.834,170.969z
		 M64.975,184.763c1.551,3.894,2.472,7.75,2.743,11.482c-1.881,0.748-3.864,1.126-5.903,1.126c-2.143,0-4.838-0.94-6.19-1.47
		C57.209,192.27,60.047,187.744,64.975,184.763z M72.286,193.474c-0.48-3.546-1.453-7.15-2.903-10.749
		c2.126-0.729,4.174-1.098,6.103-1.098c1.112,0,1.912,0.126,2.36,0.223C77.7,186.338,75.669,190.553,72.286,193.474z
		 M46.757,175.807c1.238-3.362,3.608-6.264,6.675-8.149c1.782,1.532,3.777,3.788,5.628,6.36
		C55.888,175.488,51.333,175.755,46.757,175.807z"/>
	<g>
		<polygon fill="#750447" points="23.275,146.262 21.233,141.966 27.337,137.454 32.402,139.704 		"/>
	</g>
	<g>
		<polygon fill="#6D033D" points="98.627,144.337 101.121,139.914 95.442,136.807 90.166,139.15 		"/>
	</g>
</g>
</svg>
