<?xml version="1.0" encoding="utf-8"?>
<!-- Generator: Adobe Illustrator 17.0.0, SVG Export Plug-In . SVG Version: 6.00 Build 0)  -->
<!DOCTYPE svg PUBLIC "-//W3C//DTD SVG 1.1//EN" "http://www.w3.org/Graphics/SVG/1.1/DTD/svg11.dtd">
<svg version="1.1" id="layout1" xmlns="http://www.w3.org/2000/svg" xmlns:xlink="http://www.w3.org/1999/xlink" x="0px" y="0px"
	 width="122.553px" height="259px" viewBox="0 -0.082 122.553 259" enable-background="new 0 -0.082 122.553 259"
	 xml:space="preserve">
<path fill="#545454" d="M259.792,137.91"/>
<g>
	<path fill="#CC66A1" d="M86.687,218.975c-6.334,1.766-15.711,2.71-26.232,2.567c-10.521-0.144-20.374,0.8-29.768-2.171
		c-5.03-1.591-7.96-5.005-8.916-7.421c0.044,2.895,3.444,18.605,6.416,23.849c5.919,4.222,30.893,7.505,31.942,5.881
		c0.662-2.342,0.324-7.443,0.324-7.443h0.682c0,0-0.237,5.49,0.93,7.651c2.037,1.413,23.285-0.898,31.788-5.034
		c2.435-6.019,5.344-18.574,5.588-22.783C93.725,218.069,90.63,217.876,86.687,218.975z"/>
	<path fill="#B84F71" d="M99.402,213.839c-2.256,4.369-17.681,14.208-17.752,14.235l5.204,0.947l-5.204,3.833
		c5.578,2.743-4.861,5.127-12.736,6.896c-1.111,0.25-3.358,0.562-5.56,0.438c-0.924-0.644-0.878-5.768-0.904-5.935
		c2.942-0.402,5.964-1.52,8.809-3.386c0,0-6.117,1.446-11.496,1.399c-5.379-0.047-10.285-2.166-10.285-2.166
		c2.293,2.43,5.336,3.831,8.677,4.212c-0.019,0.415-1.177,5.068-1.675,5.064c-17.214-0.129-28.292-3.576-28.292-3.576
		c4.924,4.969,24.534,6.01,30.245,6.183c2.023,0.062,2.57-1.647,2.36-6.183c0.327,0.614,0.414,5.493,1.274,6.09
		c0.376,0.259,1.79-0.24,3.675-0.24c5.327,0,12.485,0.056,21.918-2.597c1.54-0.568,6.403-0.928,6.97-4.28
		c0.842-4.98,5.25-15.442,5.25-15.442l0.946-10.232C100.824,209.099,99.991,211.95,99.402,213.839z"/>
	<path fill="#750447" d="M22.521,214.728c6.167,4.279,27.094,4.631,38.615,4.585c9.584-0.038,26.523-1.098,38.306-5.255
		c3.579,2.491-2.197,3.531-5.06,4.654c-6.807,2.671-19.485,3.758-32.456,4.234c-6.103,0.224-25.431-1.198-34.822-3.211
		C20.514,218.322,20.57,215.354,22.521,214.728z"/>
</g>
</svg>
