<?xml version="1.0" encoding="utf-8"?>
<!-- Generator: Adobe Illustrator 17.0.0, SVG Export Plug-In . SVG Version: 6.00 Build 0)  -->
<!DOCTYPE svg PUBLIC "-//W3C//DTD SVG 1.1//EN" "http://www.w3.org/Graphics/SVG/1.1/DTD/svg11.dtd">
<svg version="1.1" id="图层_1" xmlns="http://www.w3.org/2000/svg" xmlns:xlink="http://www.w3.org/1999/xlink" x="0px" y="0px"
	 width="100px" height="100.003px" viewBox="0 0 100 100.003" enable-background="new 0 0 100 100.003" xml:space="preserve">
<path fill="#4E3000" d="M72.503,22.719c-8.306,1.492-16.917,3.934-19.482,7.662h-5.374c-2.565-3.727-11.176-6.169-19.482-7.662
	c-9.905-1.78-20.249,0.086-20.249,0.086v54.877c0,0,11.347-0.775,20.249,1.55c7.479,1.953,15.502,5.986,18.752,7.712v2.057h6.835
	v-2.057c3.25-1.726,11.273-5.758,18.752-7.712c8.903-2.325,20.249-1.55,20.249-1.55V22.805
	C92.753,22.805,82.409,20.94,72.503,22.719z"/>
<g>
	<path fill="#CCCCCC" d="M88.316,18.083l2.121,5.217l0.625,52.139c0,0-13.397-3.335-26.5,1.157c-7.125,2.443-13.5,8.999-13.5,8.999
		l-0.791-57.506L88.316,18.083z"/>
	<path fill="#FFFFFF" stroke="#CCCCCC" stroke-miterlimit="10" d="M51.13,76.104c0,0,9.994-9.313,19.124-11.497
		c8.408-2.012,19.124-1.341,19.124-1.341V15.791c0,0-11.691-4.904-21.046-3.365S51.13,19.963,51.13,24.332
		C51.13,28.946,51.13,76.104,51.13,76.104z"/>
</g>
<g>
	<path fill="#CCCCCC" d="M12.455,15.791l-2.746,6.748v50.608c0,0,13.397-3.335,26.5,1.157c7.125,2.443,14.495,11.291,14.495,11.291
		L50.5,25.796L12.455,15.791z"/>
	<path fill="#FFFFFF" stroke="#CCCCCC" stroke-miterlimit="10" d="M50.704,76.104c0,0-9.994-9.313-19.124-11.497
		c-8.408-2.012-19.124-1.341-19.124-1.341V15.791c0,0,11.691-4.904,21.046-3.365s17.203,7.537,17.203,11.906
		C50.704,28.946,50.704,76.104,50.704,76.104z"/>
</g>
<path fill="none" stroke="#CCCCCC" stroke-miterlimit="10" d="M16.466,18.325c0,0,8.94-2.626,16.765-1.451s9.957,3.274,14.936,7.722
	"/>
<path fill="none" stroke="#CCCCCC" stroke-miterlimit="10" d="M16.466,25.837c0,0,8.94-2.402,16.765-1.327
	c7.825,1.075,9.957,4.022,14.936,8.091"/>
<path fill="none" stroke="#CCCCCC" stroke-miterlimit="10" d="M16.466,33.157c0,0,8.94-2.402,16.765-1.327s9.957,5.051,14.936,9.119
	"/>
<path fill="none" stroke="#CCCCCC" stroke-miterlimit="10" d="M16.466,40.477c0,0,9.084-1.657,16.909-0.583
	s9.813,6.087,14.792,10.156"/>
<path fill="none" stroke="#CCCCCC" stroke-miterlimit="10" d="M16.466,48.31c0,0,8.769-2.363,16.409-0.317
	c8.644,2.314,10.313,6.344,15.292,10.413"/>
<path fill="none" stroke="#CCCCCC" stroke-miterlimit="10" d="M16.466,56.144c0,0,8.744-1.739,16.409,0.205
	c9.125,2.314,10.313,6.73,15.292,10.799"/>
<path fill="none" stroke="#CCCCCC" stroke-miterlimit="10" d="M85.867,17.78c0,0-8.94-2.626-16.765-1.451
	c-7.825,1.175-9.957,3.274-14.936,7.722"/>
<path fill="none" stroke="#CCCCCC" stroke-miterlimit="10" d="M85.867,25.293c0,0-8.94-2.402-16.765-1.327
	c-7.825,1.075-9.957,4.022-14.936,8.091"/>
<path fill="none" stroke="#CCCCCC" stroke-miterlimit="10" d="M85.867,32.612c0,0-8.94-2.402-16.765-1.327
	s-9.957,5.051-14.936,9.119"/>
<path fill="none" stroke="#CCCCCC" stroke-miterlimit="10" d="M85.867,42.553c0,0-8.94-2.402-16.765-1.327
	c-7.825,1.075-9.957,5.051-14.936,9.119"/>
</svg>
