<?xml version="1.0" encoding="utf-8"?>
<!-- Generator: Adobe Illustrator 17.0.0, SVG Export Plug-In . SVG Version: 6.00 Build 0)  -->
<!DOCTYPE svg PUBLIC "-//W3C//DTD SVG 1.1//EN" "http://www.w3.org/Graphics/SVG/1.1/DTD/svg11.dtd">
<svg version="1.1" id="图层_1" xmlns="http://www.w3.org/2000/svg" xmlns:xlink="http://www.w3.org/1999/xlink" x="0px" y="0px"
	 width="100px" height="100.003px" viewBox="0 0 100 100.003" enable-background="new 0 0 100 100.003" xml:space="preserve">
<path fill="#F8B62D" d="M54.438,95.488l4.392-9.262c-13.814-1.379-22.982,4.535-30.909,0.881c0.111-0.459,0.183-0.932,0.183-1.423
	c0-3.455-2.888-6.257-6.45-6.257c-1.149,0-2.212,0.316-3.147,0.827c-3.601-4.086-6.661-9.253-7.339-16.542
	c-0.678-7.284,1.275-15.749,7.008-24.017l-0.99-1.708c-6.214,8.961-9.169,17.399-9.07,25.736c0.078,6.532,2.69,13.491,7.78,19.195
	c-0.429,0.837-0.692,1.768-0.692,2.766c0,3.455,2.888,6.257,6.45,6.257c1.677,0,3.19-0.636,4.337-1.653
	c6.023,2.817,13.94,4.547,24.325,4.547C51.648,94.835,53.024,95.546,54.438,95.488z"/>
<polygon fill="#191919" stroke="#7F7F7F" stroke-width="2" stroke-miterlimit="10" points="98.544,40.934 51.313,6.49 4.083,40.934 
	51.313,65.491 "/>
<path fill="#474646" d="M25.417,45.679l0.479,17.301c4.85,0.149,9.423,1.347,13.493,3.37c0.217,0.047,0.438,0.087,0.65,0.146
	c3.069,0.855,11.567,9.023,11.601,8.99c0.034,0.033,8.532-8.135,11.601-8.99c0.265-0.074,0.539-0.127,0.811-0.183
	c4.032-1.992,8.557-3.175,13.352-3.332l0.551-17.303c0-6.571-11.762-11.897-26.272-11.897c-14.367,0-26.023,5.225-26.25,11.706
	c-0.002,0.001-0.021,0.013-0.021,0.013l0.004,0.143c0,0.012-0.004,0.024-0.004,0.036L25.417,45.679L25.417,45.679z"/>
<path fill="#2D2D2D" d="M33.472,35.99c0,0,17.791,2.662,24.278,11.626c6.25,8.635,8.118,17.875,8.118,17.875l11.536-2.51
	l0.663-18.944L53.5,32.251L33.472,35.99z"/>
<path fill="#F8B62D" d="M78.067,44.037l-0.082,3.897c0-4.747-11.49-12.539-26.301-12.539s-25.55,6.426-26.347,11.134l-0.036-3.23
	c2.263-8.588,13.015-13.275,26.411-13.275S74.549,34.952,78.067,44.037z"/>
</svg>
