<svg version="1.1" id="layout_1" xmlns="http://www.w3.org/2000/svg" xmlns:xlink="http://www.w3.org/1999/xlink" x="0px" y="0px" width="999.977px" height="500px" viewBox="0 0 999.977 500" enable-background="new 0 0 999.977 506.244" xml:space="preserve"> <g> <g opacity="0.9"> <path fill="#FFFFFF" d="M215.431,239.438c-3.22-0.933-3.581-0.718-4.444,2.573c-0.19,0.724-0.253,1.514-0.89,2.088 c-1.69-27.87-24.994-43.222-43.773-43.542c-13.002-0.222-24.226,3.918-33.498,12.979c-9.315,9.103-13.5,20.47-13.597,34.087 c-1.289-1.822-1.697-3.152-1.841-4.505c-0.279-2.62-1.636-3.312-4.105-2.848c-9.23,1.735-15.729,6.913-18.789,15.733 c-3.102,8.939-1.159,17.149,5.262,24.136c7.744,8.425,21.45,9.748,30.697,3.153c1.792-1.278,2.493-2.386,0.811-4.332 c-1.39-1.608-2.473-3.485-3.011-5.582c17.136,21.295,49.279,24.868,70.705,2.196c-1.059,2.309-2.032,4.452-3.651,6.163 c-1.385,1.464-1.086,2.615,0.372,3.664c0.838,0.603,1.729,1.174,2.673,1.585c13.197,5.741,28.786-0.996,33.745-14.558 C237.085,258.785,229.349,243.471,215.431,239.438z"/> <path fill="#C7E1FF" d="M164.518,292.034c-11.675,0-22.804-4.366-31.514-12.188c0.189,0.479,0.254,0.945,0.2,1.403 c-0.151,1.261-1.182,2.151-2.169,2.856c-4.005,2.856-8.852,4.366-14.014,4.366c-6.967,0-13.527-2.791-18-7.657 c-6.741-7.334-8.633-16.027-5.471-25.141c3.131-9.024,9.708-14.538,19.549-16.387c0.542-0.103,1.021-0.152,1.465-0.152 c2.26,0,3.545,1.305,3.819,3.877c0.007,0.066,0.015,0.135,0.023,0.203c0.924-12.323,5.436-22.299,13.721-30.395 c9.242-9.032,20.792-13.492,34.214-13.265c19.587,0.334,40.7,15.346,44.313,40.177c0.45-1.037,1.13-1.775,2.452-1.775 c0.678,0,1.468,0.19,2.603,0.521c6.886,1.994,12.726,6.867,16.021,13.367c3.307,6.524,3.783,14.151,1.306,20.926 c-3.777,10.329-13.747,17.271-24.807,17.271c0,0,0,0,0,0c-3.556,0-7.013-0.72-10.276-2.139c-0.878-0.383-1.786-0.92-2.858-1.69 c-1.038-0.747-1.585-1.552-1.671-2.46c-0.085-0.893,0.304-1.802,1.157-2.703c0.042-0.045,0.085-0.09,0.126-0.136 C185.939,288.127,175.429,292.034,164.518,292.034z M126.138,269.154l2.895,3.597c8.838,10.983,21.772,17.283,35.485,17.283 c12.51,0,24.483-5.379,33.714-15.146l4.161-4.403l-2.525,5.507c-1.107,2.415-2.12,4.622-3.833,6.434 c-0.301,0.318-0.653,0.774-0.619,1.139c0.035,0.369,0.48,0.762,0.848,1.026c0.953,0.686,1.744,1.155,2.488,1.479 c3.009,1.31,6.198,1.973,9.478,1.973c10.225,0,19.439-6.413,22.929-15.958c2.287-6.255,1.845-13.303-1.212-19.334 c-3.045-6.008-8.437-10.51-14.793-12.351c-0.913-0.265-1.609-0.441-2.046-0.441c-0.341,0-0.547,0-1.152,2.307 c-0.032,0.123-0.061,0.248-0.089,0.374c-0.153,0.679-0.344,1.523-1.1,2.203l-1.542,1.387l-0.125-2.069 c-1.753-28.911-26.079-42.317-42.792-42.603c-12.902-0.231-23.935,4.049-32.782,12.694c-8.848,8.646-13.197,19.565-13.296,33.379 l-0.022,3.108l-1.794-2.538c-1.229-1.737-1.833-3.226-2.019-4.977c-0.206-1.928-0.983-2.088-1.83-2.088 c-0.314,0-0.683,0.04-1.096,0.117c-9.085,1.707-15.151,6.78-18.029,15.078c-2.947,8.493-1.247,16.275,5.054,23.131 c4.095,4.455,10.119,7.011,16.527,7.011c4.744,0,9.188-1.382,12.853-3.995c0.872-0.622,1.299-1.088,1.345-1.465 c0.05-0.42-0.358-0.992-0.709-1.398c-1.592-1.841-2.676-3.855-3.223-5.988L126.138,269.154z"/> <animateTransform attributeType="XML" restart="always" calcMode="linear" additive="replace" accumulate="none" repeatCount="indefinite" dur="4s" values="0,0;0,20;0,0" attributeName="transform" fill="remove" type="translate"> </animateTransform> </g> <g> <path fill="#FFFFFF" d="M469.926,300.351c3.565,0.043,6.498-2.858,6.461-6.39c-0.036-3.455-2.859-6.173-6.402-6.164 c-3.485,0.009-6.347,2.835-6.322,6.242C463.69,297.524,466.452,300.308,469.926,300.351z"/> <path fill="#C7E1FF" d="M470.004,301.351L470.004,301.351h-0.091c-4.035-0.05-7.219-3.259-7.25-7.305 c-0.014-1.889,0.725-3.684,2.082-5.055c1.396-1.41,3.256-2.189,5.237-2.195c4.12,0,7.363,3.143,7.405,7.153 c0.021,1.952-0.732,3.8-2.12,5.202C473.862,300.57,471.994,301.351,470.004,301.351z M470.002,288.797 c-1.459,0.004-2.817,0.573-3.836,1.603c-0.979,0.989-1.513,2.279-1.503,3.632c0.022,2.947,2.34,5.284,5.275,5.32l0.066,1v-1h0 c1.451,0,2.815-0.57,3.84-1.606c1.009-1.02,1.557-2.359,1.542-3.773C475.357,291.069,472.992,288.797,470.002,288.797z"/> </g> <g> <path fill="#FFFFFF" d="M712.02,324.84c10.237,1.987,19.213-0.482,26.96-7.536c1.861-1.695,2.151-2.815,0.094-4.702 c-3.676-3.373-4.583-4.95-5.183-7.018c23.461,23.595,64.926,22.548,87.038-8.519c-0.806,3.138-2.139,5.652-3.646,8.07 c-1.924,3.087-1.91,3.233,1.52,4.814c0.393,0.181,0.777,0.397,1.189,0.514c17.516,4.968,35.709-3.978,40.679-21.261 c5.397-18.769-7.183-38.297-27.679-40.074c-1.904-0.165-2.709,0.635-2.74,2.501c-0.025,1.542-0.09,3.108-0.894,5.017 c-7.956-37.258-40.589-50.323-64.967-46.142c-27.298,4.682-51.114,30.544-46.082,65.427c-1.639-2.083-2.589-4.115-3.132-6.274 c-0.616-2.452-1.878-2.79-4.186-2.201c-12.937,3.3-22.33,15.661-22.083,29.056C689.153,309.845,698.726,322.259,712.02,324.84z"/> <path fill="#C7E1FF" d="M718.661,326.503C718.66,326.503,718.66,326.503,718.661,326.503c-2.204,0-4.502-0.229-6.831-0.682 c-13.379-2.598-23.662-15.189-23.922-29.291c-0.258-13.968,9.347-26.603,22.836-30.043c0.754-0.192,1.357-0.282,1.9-0.282 c1.814,0,2.961,1.05,3.503,3.208c0.18,0.713,0.401,1.396,0.672,2.056c-1.08-14.776,2.972-28.897,11.613-40.185 c8.754-11.433,21.799-19.366,35.79-21.766c2.95-0.506,6.019-0.763,9.119-0.763c22.23,0,47.518,13.419,55.902,43.255 c0.003-0.131,0.006-0.264,0.008-0.397c0.049-2.898,1.81-3.507,3.277-3.507c0.174,0,0.357,0.009,0.549,0.025 c9.867,0.855,18.668,5.917,24.146,13.886c5.514,8.022,7.12,18.031,4.409,27.461c-4.017,13.966-16.843,23.349-31.916,23.349 c-3.354,0-6.718-0.472-9.997-1.402c-0.391-0.111-0.74-0.281-1.049-0.431l-0.285-0.137c-1.796-0.827-2.982-1.374-3.311-2.472 c-0.323-1.08,0.346-2.154,1.359-3.78c0.259-0.415,0.522-0.849,0.787-1.304c-11.296,12.588-26.816,19.679-43.541,19.679 c-12.136,0-23.997-3.883-33.655-10.854c1.019,1.001,1.477,1.874,1.475,2.798c-0.002,1.27-0.935,2.289-1.847,3.119 C733.489,323.656,726.425,326.503,718.661,326.503z M712.644,268.205c-0.366,0-0.826,0.072-1.406,0.22 c-12.397,3.162-21.567,15.229-21.33,28.068c0.242,13.179,9.83,24.943,22.303,27.365c9.905,1.921,18.655-0.52,26.097-7.294 c0.812-0.74,1.191-1.263,1.192-1.645c0.001-0.377-0.37-0.909-1.102-1.58c-3.823-3.508-4.809-5.206-5.467-7.478l-1.09-3.758 l2.759,2.774c10.175,10.232,24.419,16.102,39.08,16.102c18.43,0,35.354-8.929,46.435-24.495l3.125-4.391l-1.342,5.22 c-0.89,3.458-2.403,6.161-3.767,8.35c-0.463,0.742-1.162,1.865-1.138,2.161c0.141,0.254,1.447,0.856,2.229,1.216l0.323,0.154 c0.257,0.125,0.499,0.243,0.72,0.306c3.102,0.88,6.282,1.326,9.451,1.326c14.173,0,26.227-8.802,29.994-21.901 c2.545-8.853,1.038-18.248-4.136-25.775c-5.138-7.475-13.4-12.223-22.669-13.026c-0.132-0.012-0.258-0.018-0.377-0.018 c-0.778,0-1.254,0.104-1.277,1.539c-0.026,1.687-0.121,3.368-0.972,5.389l-1.235,2.934l-0.664-3.112 c-3.167-14.831-10.672-26.992-21.703-35.169c-9.511-7.049-21.35-10.931-33.336-10.931c-2.987,0-5.942,0.247-8.781,0.733 c-13.5,2.316-26.089,9.974-34.54,21.011c-6.513,8.506-13.659,22.921-10.722,43.289l0.533,3.696l-2.309-2.936 c-1.648-2.095-2.702-4.208-3.315-6.648C713.813,268.333,713.266,268.205,712.644,268.205z"/> <animateTransform attributeType="XML" restart="always" calcMode="linear" additive="replace" accumulate="none" repeatCount="indefinite" dur="5s" begin="1" values="0,-7;0,7;0,-7" attributeName="transform" fill="remove" type="translate"> </animateTransform>  </g> <g> <g opacity="0.6"> <path fill="#FFFFFF" d="M307.425,234.097c1.163-0.829,1.618-1.549,0.526-2.812c-0.902-1.044-1.605-2.262-1.954-3.623 c11.123,13.822,31.986,16.141,45.893,1.425c-0.688,1.499-1.319,2.889-2.37,4c-0.899,0.95-0.705,1.698,0.241,2.378 c0.544,0.392,1.122,0.762,1.735,1.029c8.566,3.726,18.685-0.647,21.903-9.449c3.238-8.855-1.784-18.795-10.817-21.413 c-2.09-0.606-2.325-0.466-2.884,1.67c-0.123,0.47-0.164,0.983-0.578,1.355c-1.097-18.09-16.223-28.055-28.412-28.263 c-8.44-0.144-15.725,2.543-21.743,8.425c-6.046,5.909-8.763,13.286-8.826,22.125c-0.837-1.183-1.101-2.046-1.195-2.924 c-0.181-1.701-1.062-2.15-2.664-1.849c-5.991,1.126-10.209,4.487-12.196,10.212c-2.013,5.802-0.753,11.131,3.415,15.667 C292.527,237.519,301.423,238.378,307.425,234.097z"/> <path fill="#C7E1FF" d="M329.535,240.123c-7.347,0-14.366-2.635-19.971-7.374c-0.001,0.022-0.004,0.044-0.007,0.065 c-0.114,0.955-0.849,1.596-1.552,2.098c-2.659,1.896-5.875,2.899-9.299,2.899c-4.62,0-8.973-1.854-11.943-5.084 c-4.468-4.862-5.721-10.628-3.624-16.672c2.077-5.985,6.436-9.642,12.956-10.866c0.373-0.07,0.705-0.104,1.015-0.104 c0.674,0,1.695,0.188,2.319,1.193c0.886-7.273,3.799-13.251,8.837-18.174c6.067-5.931,13.629-8.87,22.459-8.71 c12.625,0.216,26.216,9.71,28.959,25.473c0.325-0.334,0.766-0.546,1.389-0.546c0.482,0,1.021,0.129,1.788,0.352 c4.562,1.322,8.431,4.55,10.613,8.856c2.19,4.32,2.505,9.372,0.864,13.86c-2.501,6.842-9.104,11.439-16.431,11.439 c-2.357,0-4.648-0.478-6.81-1.418c-0.596-0.259-1.206-0.619-1.921-1.134c-0.75-0.54-1.163-1.161-1.228-1.848 c-0.017-0.175-0.011-0.349,0.018-0.521C342.506,237.948,336.133,240.123,329.535,240.123z M303.883,223.44l2.894,3.596 c5.67,7.046,13.965,11.087,22.759,11.087c8.022,0,15.703-3.453,21.628-9.722l4.165-4.408l-2.53,5.512 c-0.733,1.598-1.401,3.053-2.552,4.271c-0.262,0.276-0.309,0.437-0.308,0.465c0.004,0.028,0.083,0.182,0.406,0.414 c0.596,0.429,1.088,0.722,1.55,0.923c1.909,0.83,3.932,1.252,6.013,1.252c6.49,0,12.338-4.07,14.553-10.127 c1.451-3.969,1.17-8.44-0.77-12.269c-1.933-3.813-5.354-6.672-9.386-7.84c-0.464-0.135-0.973-0.272-1.23-0.272 c-0.115,0.115-0.335,0.958-0.408,1.234l-0.055,0.231c-0.104,0.463-0.248,1.098-0.821,1.613l-1.542,1.387l-0.125-2.069 c-1.125-18.543-16.718-27.141-27.431-27.323c-8.367-0.17-15.276,2.52-21.027,8.14c-5.673,5.545-8.462,12.551-8.525,21.417 l-0.022,3.106l-1.794-2.535c-0.833-1.178-1.244-2.193-1.373-3.396c-0.111-1.042-0.433-1.042-0.839-1.042 c-0.183,0-0.4,0.023-0.646,0.069c-5.764,1.084-9.611,4.299-11.436,9.558c-1.867,5.381-0.789,10.314,3.207,14.662 c2.593,2.82,6.409,4.438,10.471,4.438c3.005,0,5.819-0.874,8.138-2.528c0.684-0.487,0.725-0.686,0.728-0.707 c0-0.001,0.016-0.181-0.378-0.637c-1.07-1.238-1.798-2.594-2.166-4.028L303.883,223.44z"/> </g> <g opacity="0.6"> <circle fill="#FFFFFF" cx="374.386" cy="184.421" r="4.032"/> <path fill="#C7E1FF" d="M374.386,189.453c-2.775,0-5.032-2.258-5.032-5.032s2.257-5.032,5.032-5.032 c2.774,0,5.032,2.258,5.032,5.032S377.16,189.453,374.386,189.453z M374.386,181.388c-1.672,0-3.032,1.36-3.032,3.032 s1.36,3.032,3.032,3.032s3.032-1.36,3.032-3.032S376.058,181.388,374.386,181.388z"/> </g> <animateTransform attributeType="XML" restart="always" calcMode="linear"
        		    additive="replace"
        		    accumulate="none"
        		    repeatCount="indefinite"
        		    dur="3s"
        		    begin="1"
        		    values="0,0;0,12;0,0"
        		    attributeName="transform"
        		    fill="remove"
        		    type="translate">
        		</animateTransform>
	</g>
	<g>
		<path fill="#FFFFFF" d="M998.977,225.479c-1.271-0.313-2.143,0.491-3.037,1.14c-4.578,3.321-6.723,7.851-6.342,13.466
			c0.122,1.801-0.441,2.882-1.918,3.839c-3.084,1.998-5.766,4.502-7.7,7.632c-7.342,11.882-6.863,23.526,1.299,34.857l-0.009,0.01
			c-2.618-1.839-4.393-4.425-6.005-7.091c-1.024-1.692-2.265-2.26-4.227-2.229c-17.303,0.279-33.464,4.779-48.329,13.516
			c-17.358,10.201-30.422,24.494-39.134,42.698c-1.95,4.074-1.946,4.061-6.013,2.254c-0.627-0.279-1.325-0.405-1.997-0.576
			c-6.953-1.773-14.026-2.292-21.174-2.008c-14.722,0.586-27.988,5.427-40.067,13.728c-1.259,0.865-2.345,1.742-1.874,3.587
			c1.157,4.526,2.152,9.087,2.354,13.764c-0.201-0.965-0.639-1.865-0.951-2.807c-3.871-11.719-10.001-22.014-18.741-30.817
			c-2.185-2.201-4.074-2.562-6.897-1.813c-6.76,1.793-13.66,2.273-20.624,1.302c-7.461-1.04-14.58-3.096-21.074-7.036
			c-1.862-1.13-3.145-1.343-4.986,0.786c-7.707,8.913-17.63,11.846-29.1,9.505c-5.119-1.045-9.587-3.439-13.354-7.122
			c-1.099-1.075-2.269-2.273-3.996-0.737c-4.722,4.2-9.419,8.41-13.125,13.595c-2.637,3.689-2.004,3.78-4.983,0.045
			c-15.043-18.859-42.877-21.004-60.538-4.615c-1.549,1.438-2.048,3.054-1.527,5.14c0.861,3.442,1.133,6.949,0.647,10.508
			c-1.279-5.965-3.25-11.724-5.923-17.131c-8.286-16.761-21.054-28.839-38.518-35.822c-9.245-3.697-18.844-5.24-28.764-5.068
			c-2.223,0.039-4.049,0.462-5.038,2.807c-0.528,1.25-1.496,2.322-3.098,3.396c5.897-12.861,0.054-22.62-7.84-26.635
			c-8.695-4.422-19.212-1.317-24.333,7.078c-2.925,4.795-3.381,9.991-1.772,15.3c1.62,5.345,5.391,8.974,10.11,11.771
			c-1.085-0.157-2.197-0.226-3.069-0.719c-2.029-1.148-3.621-0.422-5.238,0.797c-15.2,11.454-24.816,26.423-28.31,45.187
			c-0.378,2.028-1.078,2.702-3.197,2.67c-12.992-0.195-24.8,3.617-35.425,11.032c-8.947,6.243-15.604,14.447-20.285,24.28
			c-1.552,3.26-1.539,3.224-4.384,1.2c-1.764-1.255-3.545-2.51-5.425-3.577c-19.863-11.271-39.987-11.771-60.448-1.563
			c-3.227,1.61-4.94,3.549-4.766,7.353c0.12,2.635-0.73,5.277-2.331,7.563c3.233-23.763-1.808-45.205-17.806-63.335
			c-16.038-18.174-36.517-26.659-60.693-25.378c-42.46,2.248-71.478,38.861-70.581,74.872c-0.702-3.214-1.74-6.489-1.347-9.729
			c0.68-5.61-1.698-8.869-6.76-10.626c-0.162-0.056-0.302-0.17-0.458-0.246c-23.898-11.652-47.601-11.546-71.073,1.222
			c-3.254,1.77-3.867,1.577-4.707-1.971c-5.038-21.273-15.714-39.111-32.394-53.313c-8.673-7.384-18.361-13.022-28.98-17.113
			c-2.24-0.863-3.878-0.561-5.455,1.415c-2.366,2.964-4.194,4.145-7.27,5.443c4.219-4.437,7.242-9.415,8.58-15.34
			c3.744-16.583-7.869-32.864-25.05-34.862c-2.587-0.301-2.735-0.899-1.762-3.098c1.945-4.399,1.46-8.819-0.728-13.053
			c-1.938-3.75-7.768-8.24-11.951-7.24c0,92.077,0.006,184.155-0.043,276.232c-0.001,1.866,0.283,2.445,2.34,2.445
			c331.773-0.058,663.547-0.058,995.32,0c2.058,0,2.341-0.58,2.34-2.445C998.971,411.022,998.977,318.251,998.977,225.479z"/>

		<path fill="#C7E1FF" d="M-1.934,226.778l0.768-0.184c0.469-0.112,0.968-0.169,1.482-0.169c4.417,0,9.653,4.176,11.589,7.923
			c2.47,4.779,2.724,9.461,0.754,13.916c-0.465,1.051-0.481,1.353-0.467,1.434c-0.007-0.048,0.242,0.128,1.43,0.267
			c8.521,0.991,16.234,5.549,21.165,12.507c4.852,6.846,6.582,15.437,4.746,23.569c-0.901,3.989-2.565,7.696-5.047,11.223
			c0.64-0.594,1.285-1.3,1.979-2.17c1.791-2.244,3.794-2.802,6.596-1.725c10.867,4.188,20.715,10.002,29.269,17.284
			c16.596,14.131,27.604,32.247,32.718,53.845c0.134,0.567,0.543,2.294,0.936,2.294c0.535,0,1.786-0.681,2.32-0.971
			c12.073-6.567,24.461-9.897,36.822-9.897c11.558,0,23.39,2.912,35.168,8.655c0.09,0.044,0.177,0.095,0.263,0.147
			c0.033,0.021,0.066,0.042,0.101,0.059c4.932,1.711,7.414,4.81,7.526,9.435c2.141-14.077,8.601-27.799,18.523-38.905
			c13.51-15.122,32.063-24.039,52.242-25.107c24.556-1.294,45.312,7.376,61.495,25.715c13.008,14.741,19.359,32.436,18.953,52.72
			c0.93-2.305,2.85-3.583,4.754-4.533c9.838-4.908,19.744-7.397,29.443-7.397c10.69,0,21.438,3.023,31.945,8.985
			c1.86,1.057,3.596,2.271,5.511,3.633l0.087,0.062c0.704,0.501,1.429,1.017,1.748,1.135c0.238-0.272,0.659-1.155,1.066-2.012
			c4.864-10.22,11.801-18.52,20.615-24.671c10.938-7.632,23.042-11.42,36.013-11.212l0.126,0.001c1.468,0,1.778-0.277,2.072-1.854
			c3.476-18.664,13.129-34.074,28.691-45.802c1.063-0.802,2.381-1.615,3.974-1.572c-3.048-2.645-5.068-5.681-6.132-9.188
			c-1.752-5.779-1.121-11.2,1.875-16.111c3.654-5.99,9.953-9.566,16.851-9.566c3.069,0,6.026,0.712,8.789,2.117
			c7.351,3.739,12.728,11.935,10.153,22.647c1.337-1.961,3.425-2.289,5.353-2.323c10.341-0.178,20.168,1.547,29.152,5.139
			c17.446,6.977,30.582,19.192,39.044,36.308c1.494,3.023,2.785,6.185,3.862,9.452c-0.123-0.712-0.274-1.427-0.453-2.143
			c-0.604-2.42-0.01-4.421,1.816-6.116c7.853-7.286,18.063-11.299,28.755-11.299c13.006,0,25.123,5.841,33.246,16.023
			c0.277,0.349,0.523,0.663,0.744,0.945c0.391,0.499,0.791,1.012,1.053,1.288c0.212-0.257,0.516-0.697,0.812-1.127
			c0.225-0.325,0.48-0.694,0.777-1.11c3.833-5.361,8.633-9.631,13.273-13.76c0.734-0.653,1.495-0.983,2.262-0.983
			c1.309,0,2.272,0.943,3.047,1.702c3.684,3.601,8.009,5.908,12.907,6.908c11.354,2.314,20.883-0.783,28.144-9.18
			c1.162-1.345,2.259-1.971,3.452-1.971c1.047,0,2.007,0.497,2.809,0.983c5.784,3.51,12.553,5.767,20.693,6.901
			c6.693,0.935,13.519,0.502,20.229-1.279c0.984-0.261,1.843-0.388,2.624-0.388c1.933,0,3.548,0.76,5.239,2.464
			c7.109,7.16,12.698,15.554,16.667,25.018c-0.313-1.432-0.658-2.836-1.008-4.205c-0.672-2.634,1.174-3.902,2.276-4.66
			c12.594-8.654,26.251-13.332,40.594-13.902c7.859-0.312,14.849,0.353,21.461,2.038l0.453,0.109
			c0.559,0.133,1.137,0.27,1.704,0.522c1.419,0.63,2.417,1.073,2.91,1.073c0.413,0,0.873-0.924,1.793-2.846
			c8.791-18.369,22.091-32.88,39.529-43.129c14.937-8.778,31.361-13.372,48.819-13.653l0.167-0.001c1.985,0,3.355,0.601,4.433,1.981
			c-3.288-8.879-2.12-17.942,3.509-27.053c1.885-3.052,4.579-5.726,8.007-7.946c1.191-0.772,1.561-1.512,1.464-2.933
			c-0.404-5.973,1.867-10.798,6.753-14.343l0.279-0.206c0.712-0.532,1.599-1.194,2.785-1.194c0.264,0,0.532,0.033,0.799,0.1
			l0.761,0.188l-0.954,1.654c-0.369,0.133-1.784,0.549-2.194,0.856l-0.302,0.223c-4.291,3.113-6.286,7.349-5.931,12.589
			c0.146,2.154-0.563,3.573-2.372,4.745c-3.178,2.06-5.665,4.521-7.394,7.319c-7.062,11.429-6.638,22.783,1.26,33.746l0.471,0.653
			l-1.131,1.26l-0.734-0.5c-2.777-1.95-4.663-4.705-6.286-7.392c-0.781-1.29-1.624-1.747-3.222-1.747l-0.135,0.001
			c-17.108,0.275-33.203,4.776-47.838,13.378c-17.089,10.043-30.123,24.265-38.738,42.268c-1.27,2.651-1.906,3.982-3.598,3.982
			c-0.917,0-1.958-0.462-3.685-1.229c-0.436-0.194-0.899-0.305-1.391-0.421l-0.486-0.118c-6.422-1.636-13.219-2.281-20.887-1.978
			c-13.96,0.556-27.264,5.115-39.541,13.553c-1.35,0.928-1.751,1.421-1.472,2.517c1.113,4.353,2.173,9.058,2.385,13.968
			l-1.978,0.247c-0.114-0.545-0.323-1.089-0.545-1.666c-0.131-0.342-0.262-0.684-0.377-1.032
			c-3.929-11.891-9.98-21.843-18.502-30.426c-1.303-1.312-2.445-1.872-3.819-1.872c-0.605,0-1.296,0.104-2.11,0.321
			c-6.969,1.848-14.064,2.296-21.019,1.326c-8.416-1.173-15.434-3.519-21.455-7.172c-0.802-0.485-1.331-0.693-1.771-0.693
			c-0.358,0-0.948,0.133-1.939,1.279c-7.743,8.955-17.961,12.298-30.057,9.83c-5.28-1.078-9.941-3.562-13.854-7.387
			c-0.621-0.607-1.208-1.183-1.7-1.183c-0.262,0-0.575,0.16-0.933,0.478c-4.559,4.056-9.272,8.249-12.976,13.429
			c-0.29,0.405-0.539,0.768-0.759,1.084c-0.954,1.381-1.479,2.142-2.433,2.143c-0.927,0-1.504-0.738-2.653-2.208
			c-0.218-0.278-0.46-0.588-0.732-0.93c-7.741-9.705-19.289-15.271-31.683-15.271c-10.185,0-19.913,3.823-27.394,10.766
			c-1.296,1.202-1.666,2.447-1.237,4.164c0.924,3.694,1.148,7.357,0.668,10.885l-0.771,5.656l-1.197-5.581
			c-1.277-5.955-3.243-11.64-5.842-16.897c-8.236-16.66-21.02-28.55-37.993-35.337c-8.854-3.54-18.161-5.176-28.375-4.996
			c-2.096,0.037-3.376,0.397-4.134,2.195c-0.611,1.444-1.711,2.663-3.463,3.838l-2.942,1.974l1.477-3.221
			c5.54-12.083,0.283-21.427-7.385-25.327c-2.479-1.262-5.132-1.9-7.883-1.9c-6.194,0-11.855,3.218-15.144,8.607
			c-2.687,4.404-3.247,9.279-1.668,14.49c1.38,4.552,4.45,8.111,9.662,11.2l4.343,2.574l-5.531-0.797
			c-0.977-0.127-1.987-0.259-2.882-0.766c-1.364-0.77-2.359-0.619-4.145,0.726c-15.15,11.417-24.547,26.412-27.929,44.571
			c-0.467,2.51-1.6,3.487-4.038,3.487l-0.157-0.001c-12.533-0.204-24.251,3.464-34.838,10.853
			c-8.527,5.95-15.24,13.987-19.954,23.89c-0.975,2.048-1.512,3.176-2.8,3.176c-0.831,0-1.594-0.543-2.979-1.528l-0.087-0.062
			c-1.869-1.33-3.561-2.514-5.339-3.522c-10.202-5.79-20.618-8.726-30.958-8.726c-9.386,0-18.992,2.418-28.55,7.187
			c-3.212,1.604-4.354,3.342-4.213,6.413c0.128,2.825-0.74,5.654-2.511,8.183l-2.366,3.376l0.556-4.085
			c3.334-24.51-2.575-45.551-17.565-62.539c-15.765-17.863-35.968-26.313-59.89-25.04c-19.643,1.04-37.704,9.72-50.856,24.442
			c-12.371,13.847-19.215,31.854-18.777,49.405l-1.977,0.239c-0.128-0.587-0.268-1.176-0.407-1.766
			c-0.638-2.692-1.298-5.477-0.956-8.297c0.599-4.941-1.281-7.891-6.095-9.562c-0.199-0.069-0.354-0.164-0.468-0.233
			c-0.034-0.02-0.066-0.041-0.101-0.059c-11.502-5.608-23.039-8.452-34.291-8.452c-12.022,0-24.09,3.248-35.866,9.654
			c-1.414,0.769-2.403,1.214-3.276,1.214c-1.974,0-2.477-2.125-2.882-3.833c-5.014-21.175-15.804-38.934-32.069-52.782
			c-8.381-7.136-18.035-12.836-28.691-16.941c-0.681-0.262-1.257-0.389-1.763-0.389c-0.632,0-1.493,0.169-2.55,1.495
			c-2.551,3.195-4.582,4.439-7.663,5.74l-4.417,1.863l3.304-3.475c4.386-4.612,7.111-9.477,8.329-14.871
			c1.711-7.579,0.098-15.588-4.426-21.972c-4.603-6.495-11.806-10.751-19.764-11.677c-1.419-0.165-2.464-0.45-2.952-1.304
			c-0.531-0.93-0.118-2.04,0.392-3.191c1.712-3.874,1.476-7.975-0.702-12.189c-1.675-3.239-6.542-7.007-10.063-6.835L-1.934,226.778
			z"/>
	</g>
</g>
</svg>
