<?xml version="1.0" encoding="utf-8"?>
<!-- Generator: Adobe Illustrator 17.0.0, SVG Export Plug-In . SVG Version: 6.00 Build 0)  -->
<!DOCTYPE svg PUBLIC "-//W3C//DTD SVG 1.1//EN" "http://www.w3.org/Graphics/SVG/1.1/DTD/svg11.dtd">
<svg version="1.1" id="图层_1" xmlns="http://www.w3.org/2000/svg" xmlns:xlink="http://www.w3.org/1999/xlink" x="0px" y="0px"
	 width="100px" height="100.003px" viewBox="0 0 100 100.003" enable-background="new 0 0 100 100.003" xml:space="preserve">
<g id="grid">
	<g>
		<g>
			<polygon fill="none" stroke="#FFFFFF" stroke-miterlimit="10" points="10.891,73.684 10.824,27.733 50.585,4.7 90.413,27.617 
				90.48,73.567 50.719,96.601 			"/>
			<polyline fill="none" stroke="#FFFFFF" stroke-miterlimit="10" points="10.824,27.733 50.719,50.61 50.719,96.601 			"/>
			<line fill="none" stroke="#FFFFFF" stroke-miterlimit="10" x1="50.719" y1="50.61" x2="90.413" y2="27.617"/>
			<line fill="none" stroke="#FFFFFF" stroke-miterlimit="10" x1="22.911" y1="34.762" x2="62.604" y2="11.768"/>
			<line fill="none" stroke="#FFFFFF" stroke-miterlimit="10" x1="36.65" y1="42.629" x2="76.344" y2="19.635"/>
			<line fill="none" stroke="#FFFFFF" stroke-miterlimit="10" x1="22.911" y1="34.762" x2="22.911" y2="80.535"/>
			<line fill="none" stroke="#FFFFFF" stroke-miterlimit="10" x1="36.65" y1="42.629" x2="36.65" y2="88.401"/>
			<line fill="none" stroke="#FFFFFF" stroke-miterlimit="10" x1="79.839" y1="33.768" x2="40.147" y2="10.775"/>
			<line fill="none" stroke="#FFFFFF" stroke-miterlimit="10" x1="66.099" y1="41.635" x2="26.406" y2="18.642"/>
			<line fill="none" stroke="#FFFFFF" stroke-miterlimit="10" x1="79.839" y1="33.768" x2="79.839" y2="79.541"/>
			<line fill="none" stroke="#FFFFFF" stroke-miterlimit="10" x1="66.099" y1="41.635" x2="66.099" y2="87.408"/>
			<g>
				<line fill="none" stroke="#FFFFFF" stroke-miterlimit="10" x1="50.589" y1="80.976" x2="90.281" y2="57.982"/>
				<line fill="none" stroke="#FFFFFF" stroke-miterlimit="10" x1="50.589" y1="65.953" x2="90.281" y2="42.958"/>
			</g>
			<g>
				<line fill="none" stroke="#FFFFFF" stroke-miterlimit="10" x1="50.46" y1="80.741" x2="10.769" y2="57.748"/>
				<line fill="none" stroke="#FFFFFF" stroke-miterlimit="10" x1="50.46" y1="65.719" x2="10.769" y2="42.724"/>
			</g>
		</g>
	</g>
</g>
<g id="ball">
	
		<animateTransform  fill="remove" type="rotate" additive="replace" from="0 50 50" attributeName="transform" to="120 50 50" dur="1.5s" calcMode="linear" restart="always" begin="5s" accumulate="none" attributeType="xml" repeatCount="indefinite">
		</animateTransform>
	<circle fill="#FFFFFF" cx="22.911" cy="34.762" r="4.242"/>
	<circle fill="#FFFFFF" cx="79.839" cy="33.768" r="4.242"/>
	<circle fill="#FFFFFF" cx="50.719" cy="80.976" r="4.242"/>
</g>
</svg>
