<?xml version="1.0" encoding="utf-8"?>
<!-- Generator: Adobe Illustrator 17.0.0, SVG Export Plug-In . SVG Version: 6.00 Build 0)  -->
<!DOCTYPE svg PUBLIC "-//W3C//DTD SVG 1.1//EN" "http://www.w3.org/Graphics/SVG/1.1/DTD/svg11.dtd">
<svg version="1.1" id="图层_1" xmlns="http://www.w3.org/2000/svg" xmlns:xlink="http://www.w3.org/1999/xlink" x="0px" y="0px"
	 width="100px" height="100.003px" viewBox="0 0 100 100.003" enable-background="new 0 0 100 100.003" xml:space="preserve">
<g>
	<path fill="#FFD144" d="M68.217,51.751c2.895-1.878,28.155-18.736,23.764-32.105c-2.004-6.103-15.211-4.532-20.798-3.573
		l0.845,4.928c8.124-1.388,14.447-0.771,15.231,0.264c2.387,7.296-12.079,20.008-21.764,26.292L68.217,51.751z"/>
</g>
<g>
	<path fill="#FFD144" d="M31.33,50.751C28.436,48.874,3.175,32.015,7.566,18.646c2.004-6.103,15.211-4.532,20.798-3.573
		l-0.845,4.928c-8.124-1.388-14.447-0.771-15.231,0.264c-2.387,7.296,12.079,20.008,21.764,26.292L31.33,50.751z"/>
</g>
<path fill="#FFD144" d="M50.5,97.394h22.632c0,0-11.229-12.022-14.097-17.007C56.148,75.37,50.5,58.018,50.5,58.018
	s-6.139,17.3-9.071,22.369c-2.821,4.877-13.561,17.007-13.561,17.007H50.5z"/>
<path fill="#FFD144" d="M82.739,8.673c0,0-0.001-0.002-0.001-0.002C82.721,7.469,68.07,5.376,50,5.376S17.28,7.469,17.262,8.672
	c0,0-0.001,0.001-0.001,0.002c0,0,0,0,0,0.001c0,0.001,9.581,55.167,32.739,55.167C73.158,63.841,82.739,8.673,82.739,8.673z"/>
<path fill="#FFF49C" d="M65.495,5.73c0,0,0,17.771-3.745,33.646C57.672,56.664,51.5,65.668,51.5,65.668s9.17-5.95,15.857-18.283
	C74.885,33.501,79.49,7.51,79.49,7.51s-6.946-1.005-8.916-1.205C68.654,6.11,65.495,5.73,65.495,5.73z"/>
<path fill="#FFF49C" d="M30.356,6.333c0,0,2.144,22.793,8.909,38.663c2.837,6.655,10.772,18.844,10.772,18.844
	s-8.525-5.089-14.787-16.214c-4.365-7.756-10.247-26.863-12.697-40.125C27.953,6.274,30.356,6.333,30.356,6.333z"/>
<path fill="#FFF49C" d="M47.125,72.001c2.639-7.152-3.875,24.5-3.875,24.5h-11.5c0,0,5.176-4.253,9.75-11.562
	C43.75,81.343,45.847,75.464,47.125,72.001z"/>
<path fill="#FFF49C" d="M53.804,71.304c-2.639-7.152,3.875,24.5,3.875,24.5l11.5,0c0,0-5.176-4.253-9.75-11.563
	C57.179,80.645,55.082,74.766,53.804,71.304z"/>
<path fill="#FFD144" d="M74.885,98.421L74.885,98.421c0-2.78-1.779-5.033-3.974-5.033H29.336c-2.195,0-3.974,2.253-3.974,5.033l0,0
	H74.885z"/>
<path fill="#FFD144" d="M60.177,67.126c0,3.245-1.957,5.875-4.371,5.875H44.442c-2.414,0-4.371-2.63-4.371-5.875l0,0
	c0-3.245,1.957-5.875,4.371-5.875h11.364C58.22,61.251,60.177,63.882,60.177,67.126L60.177,67.126z"/>
<path fill="#FFF49C" d="M48.037,67.858c0,1.322-1.072,2.393-2.393,2.393l0,0c-1.322,0-2.393-1.072-2.393-2.393v-1.624
	c0-1.322,1.072-2.393,2.393-2.393l0,0c1.322,0,2.393,1.072,2.393,2.393V67.858z"/>
</svg>
