<svg version="1.1" id="layout_1" xmlns="http://www.w3.org/2000/svg" xmlns:xlink="http://www.w3.org/1999/xlink" x="0px" y="0px"
	 width="144px" height="48px" viewBox="1.75 0 144 48" enable-background="new 1.75 0 144 48" xml:space="preserve">

<path d="M138.329,39.663c-1.055-0.525-1.967-0.94-2.839-1.425c-0.594-0.33-1.136-0.357-1.811-0.221
	c-4.502,0.904-8.508,0.022-11.731-3.455c-0.571-0.616-1.037-1.316-1.349-2.095c-0.177-0.442-0.426-0.559-0.885-0.526
	c-1.816,0.131-3.616,0.001-5.366-0.534c-0.375-0.115-0.643,0.027-0.941,0.176c-1.237,0.617-2.476,1.23-3.887,1.931
	c0.292-1.02,0.474-1.889,0.793-2.703c0.3-0.765,0.15-1.181-0.527-1.7c-2.844-2.18-4.442-5.032-4.179-8.706
	c0.231-3.219,1.93-5.615,4.446-7.504c5.31-3.986,13.743-3.396,18.349,1.293c1.393,1.419,2.395,3.071,2.764,5.047
	c0.116,0.619,0.369,0.831,1.021,0.899c3.118,0.326,5.795,1.599,7.734,4.111c2.85,3.692,2.151,8.63-1.628,11.54
	c-0.727,0.56-0.905,1.045-0.568,1.856C137.968,38.229,138.095,38.861,138.329,39.663z M121.385,17.23
	c-0.06,0.91,0.668,1.736,1.588,1.803c0.906,0.066,1.749-0.664,1.819-1.574c0.073-0.952-0.677-1.8-1.631-1.844
	C122.236,15.574,121.447,16.29,121.385,17.23z M115.805,17.293c-0.012-0.938-0.766-1.681-1.699-1.676
	c-0.929,0.005-1.676,0.758-1.68,1.693c-0.004,0.972,0.785,1.753,1.738,1.723C115.086,19.003,115.817,18.228,115.805,17.293z
	 M127.464,24.984c-0.762,0.025-1.354,0.665-1.321,1.426c0.032,0.716,0.657,1.303,1.372,1.287c0.753-0.017,1.353-0.666,1.315-1.423
	C128.792,25.542,128.177,24.961,127.464,24.984z M134.553,24.983c-0.738-0.02-1.398,0.622-1.396,1.357
	c0.002,0.719,0.595,1.335,1.307,1.356c0.72,0.021,1.345-0.552,1.382-1.27C135.886,25.657,135.301,25.003,134.553,24.983z"/>
<g>
	<g>
		<path d="M85.476,24.169c-0.274-0.135-0.574-0.222-0.867-0.314c-1.204-0.377-1.27-0.506-0.836-1.705
			c1.047-2.892-0.49-4.917-3.544-4.757c-1.697,0.089-3.27,0.528-4.784,1.266c-0.371,0.181-0.8,0.45-1.215,0.126
			c-0.431-0.336-0.195-0.79-0.115-1.202c0.029-0.15,0.096-0.293,0.129-0.443c0.538-2.451-0.928-4.237-3.418-4.161
			c-2.008,0.062-3.771,0.863-5.435,1.89c-3.647,2.251-6.333,5.441-8.64,8.986c-3.019,4.639-1.951,9.827,2.678,12.883
			c3.621,2.391,7.693,3.177,11.275,3.275c5.68-0.032,10.303-1.25,14.291-4.415c1.491-1.183,2.749-2.555,3.443-4.375
			C89.698,27.92,88.404,25.614,85.476,24.169z M80.305,33.758c-1.995,2.115-4.488,3.345-7.323,3.812
			c-3.221,0.531-6.379,0.17-9.422-1.04c-1.01-0.401-1.921-0.973-2.715-1.72c-2.646-2.487-2.747-5.813-0.214-8.402
			c2.291-2.341,5.183-3.465,8.357-3.958c0.82-0.127,1.647-0.23,2.485-0.178c2.48,0.063,4.904,0.398,7.146,1.561
			C82.856,26.031,83.584,30.282,80.305,33.758z"/>
		<path d="M94.578,16.842c-0.739-4.343-4.326-7.767-8.792-8.444c-1.545-0.234-3.072-0.261-4.559,0.277
			c-0.766,0.277-1.238,0.837-1.141,1.694c0.091,0.799,0.608,1.281,1.386,1.392c0.347,0.049,0.728-0.07,1.084-0.153
			c3.974-0.924,8.16,1.792,8.891,5.782c0.252,1.378-0.115,2.683-0.482,3.994c-0.27,0.964,0.126,1.707,0.986,1.993
			c0.865,0.287,1.598-0.076,1.978-1.007c0.505-1.239,0.77-2.529,0.784-3.874C94.67,17.945,94.67,17.386,94.578,16.842z"/>
		<path d="M87.311,21.024c0.566,0.13,0.964-0.165,1.166-0.671c0.194-0.486,0.288-1.005,0.256-1.461
			c0.032-3.362-3.038-5.684-6.192-4.772c-0.625,0.181-0.982,0.546-0.875,1.197c0.103,0.631,0.503,0.937,1.182,0.889
			c3.085-0.221,3.76,0.469,3.621,3.669C86.442,20.488,86.727,20.889,87.311,21.024z"/>
	</g>
	<path d="M69.13,36.007c-0.642-0.046-1.287-0.027-1.924-0.187c-3.097-0.778-4.46-3.016-3.531-6.058
		c1.641-5.371,7.737-5.486,10.506-3.115c2.415,2.067,2.058,6.09-0.697,8.111C72.188,35.708,70.72,36.071,69.13,36.007z
		 M67.425,33.908c1.115,0.013,2.234-1.058,2.258-2.161c0.021-0.967-0.846-1.839-1.825-1.835c-1.243,0.004-2.407,1.011-2.429,2.099
		C65.41,33.022,66.329,33.895,67.425,33.908z M71.811,29.846c-0.065-0.499-0.322-0.797-0.848-0.778
		c-0.48,0.017-0.738,0.3-0.74,0.768c-0.002,0.469,0.257,0.757,0.732,0.78C71.475,30.643,71.742,30.347,71.811,29.846z"/>
</g>
<path d="M6.54,13.533c0,7.64,0,15.25,0,22.852c0.49,2.232,2.473,3.904,4.852,3.904h31.217c2.379,0,4.362-1.673,4.852-3.904
	c0-7.623,0-15.234,0-22.852c-0.49-2.232-2.473-3.904-4.852-3.904c-10.41,0-20.809,0-31.217,0C9.013,9.629,7.03,11.302,6.54,13.533z
	 M39.96,10.696c-4.348,4.427-8.75,8.91-13.103,13.343c-4.26-4.344-8.654-8.824-13.085-13.343
	C22.556,10.696,31.32,10.696,39.96,10.696z M41.367,15.812c0,5.961,0,12.008,0,18.173c-3.532-2.521-7.029-5.017-10.484-7.483
	C34.403,22.913,37.891,19.357,41.367,15.812z M12.571,15.666c3.226,3.295,6.512,6.653,9.824,10.036
	c-3.192,2.731-6.466,5.532-9.824,8.405C12.571,27.849,12.571,21.697,12.571,15.666z M12.535,35.689
	c0.003-0.152,0.161-0.333,0.293-0.446c3.415-2.933,6.837-5.859,10.258-8.784c0.045-0.038,0.106-0.058,0.183-0.099
	c1.244,1.286,2.489,2.573,3.773,3.899c1.039-1.08,2.007-2.087,2.988-3.107c2.368,1.689,4.687,3.343,7.006,4.998
	c1.321,0.942,2.634,1.895,3.965,2.822c0.304,0.212,0.441,0.434,0.433,0.82c-0.025,1.156-0.009,2.313-0.009,3.528
	c-9.669,0-19.253,0-28.904,0C12.522,38.082,12.511,36.885,12.535,35.689z"/>
</svg>
