<?xml version="1.0" encoding="utf-8"?>
<!-- Generator: Adobe Illustrator 17.0.0, SVG Export Plug-In . SVG Version: 6.00 Build 0)  -->
<!DOCTYPE svg PUBLIC "-//W3C//DTD SVG 1.1//EN" "http://www.w3.org/Graphics/SVG/1.1/DTD/svg11.dtd">
<svg version="1.1" id="图层_1" xmlns="http://www.w3.org/2000/svg" xmlns:xlink="http://www.w3.org/1999/xlink" x="0px" y="0px"
	 width="100px" height="100.003px" viewBox="0 0 100 100.003" enable-background="new 0 0 100 100.003" xml:space="preserve">
<circle fill="#EEEEEE" cx="51" cy="50.001" r="48"/>
<path fill="#1B003A" d="M64.029,96.209l0.288-14.28c0-2.65-0.509-5.144-1.395-7.346c16.299-3.109,20.956-13.537,20.753-24.645
	c-0.092-4.98-1.907-9.406-5.114-13.009c0,0,1.409-15.063,0-16.182c-3.753-2.981-16.861,7.335-16.861,7.335
	c-2.979-0.598-6.197-0.919-9.621-0.919c-4.064,0-7.839,0.457-11.291,1.272l0.031-0.019c0,0-13.743-9.896-17.632-7.669
	s0,19.016,0,19.016l0.028-0.019c-1.79,2.929-2.764,6.252-2.703,9.899c0.195,11.959,5.325,21.68,20.18,24.823
	c-0.896,2.185-1.409,4.668-1.431,7.302c-2.299,0.103-4.632-0.011-6.138-0.671c-2.288-0.999-3.817-2.826-5.757-5.136
	c-1.477-1.99-3.331-3.425-5.477-5.24c-0.997-0.843-3.468-1.248-3.219,0.031c0.304,1.56,2.125,2.375,2.875,4.125
	c1.056,2.464,2.335,5.048,3.156,6.156c2.152,2.564,3.298,4.433,6.594,5.875c1.926,0.843,5.188,1.781,7.955,2.062l0.577,8.031
	c0,0,5,1,11.174,1C57.701,98.001,64.029,96.209,64.029,96.209z"/>
<circle fill="#FFFFFF" cx="20.909" cy="71.33" r="0.604"/>
<circle fill="#FFFFFF" cx="29.587" cy="80.544" r="0.604"/>
<circle fill="#FFFFFF" cx="26.992" cy="77.724" r="0.604"/>
<circle fill="#FFFFFF" cx="24.884" cy="75.378" r="0.604"/>
<circle fill="#FFFFFF" cx="22.82" cy="72.827" r="0.604"/>
<circle fill="#FFFFFF" cx="34.922" cy="83.551" r="0.604"/>
<circle fill="#FFFFFF" cx="32.202" cy="82.285" r="0.604"/>
<circle fill="#FFFFFF" cx="38.558" cy="84.155" r="0.604"/>
</svg>
