<?xml version="1.0" encoding="utf-8"?>
<!-- Generator: Adobe Illustrator 17.0.0, SVG Export Plug-In . SVG Version: 6.00 Build 0)  -->
<!DOCTYPE svg PUBLIC "-//W3C//DTD SVG 1.1//EN" "http://www.w3.org/Graphics/SVG/1.1/DTD/svg11.dtd">
<svg version="1.1" id="layout1" xmlns="http://www.w3.org/2000/svg" xmlns:xlink="http://www.w3.org/1999/xlink" x="0px" y="0px"
	 width="122.553px" height="259px" viewBox="0 0 122.553 259" enable-background="new 0 0 122.553 259" xml:space="preserve">
<g>
	<g>
		<path fill="#5A297E" d="M112.805,142.829c-3.57-7.078-14.815-9.741-14.815-9.741s-3.089,2.832-4.71,3.535
			c-1.552,0.673-7.242,2.922-7.242,2.922s-7.84,12.486-24.708,12.486c-15.18,0-22.013-11.589-22.013-11.589
			s-7.71-1.094-10.415-2.192c-3.111-1.263-6.55-3.982-6.55-3.982s-8.837,1.754-12.316,8.878C4.91,153.643,1.746,171.904,0,189.183
			c3.774,4.595,16.536,3.593,18.045,3.258c-0.554,13.924,4.21,27.366,4.372,27.577c2.45,3.175,20.433-12.611,40.977-12.652
			c20.612-0.041,35.538,17.101,37.955,13.884c0.17-0.227,5.851-15.331,4.74-29.121c2.55,0.449,12.984,1.817,16.463-2.533
			C120.584,172.34,118.066,153.259,112.805,142.829z"/>
		<path fill="#FFFFFF" d="M62.458,158.041c-11.315,0-20.521,9.206-20.521,20.521s9.206,20.521,20.521,20.521
			s20.521-9.206,20.521-20.521S73.773,158.041,62.458,158.041z M67.479,194.433v-4.64c0-0.952-0.183-1.848-0.501-2.639
			c5.855-1.117,7.528-4.863,7.455-8.853c-0.033-1.789-0.685-3.379-1.837-4.673c0,0,0.506-5.411,0-5.813
			c-1.348-1.071-6.057,2.635-6.057,2.635c-1.07-0.215-2.226-0.33-3.456-0.33c-1.46,0-2.816,0.164-4.056,0.457l0.011-0.007
			c0,0-4.937-3.555-6.334-2.755s0,6.831,0,6.831l0.01-0.007c-0.643,1.052-0.993,2.246-0.971,3.556
			c0.07,4.296,1.913,7.788,7.249,8.917c-0.322,0.785-0.506,1.677-0.514,2.623c-0.826,0.037-1.664-0.004-2.205-0.241
			c-0.822-0.359-1.371-1.015-2.068-1.845c-0.508-0.606-1.085-1.293-1.856-1.945c-0.358-0.303-0.891-0.257-1.194,0.1
			c-0.302,0.358-0.257,0.892,0.1,1.194c0.661,0.558,1.165,1.159,1.652,1.74c0.773,0.921,1.502,1.79,2.686,2.308
			c0.692,0.303,1.577,0.402,2.44,0.402c0.149,0,0.295-0.005,0.441-0.01v3.175l0.15,0.136c-7.336-1.738-12.817-8.327-12.817-16.187
			c0-9.18,7.469-16.649,16.649-16.649s16.649,7.469,16.649,16.649C79.107,185.992,74.212,192.298,67.479,194.433z"/>
		<path fill="#452670" d="M106.09,192.128l-9.208-37.017c0,0,3.191,16.172,4.073,30.966c-2.734-1.109-7.252-2.572-14.677-4.455
			c-5.422-1.375,9.037,2.515,14.874,9.113c0.208,9.07-0.746,16.834-4.27,18.814c-4.164,2.34-14.588-5.808-35.423-3.808
			c24.806,1.714,35.423,16.307,38.533,15.859c2.842-0.41,2.283-2.922,4.39-10.616C106.509,203.217,106.09,192.128,106.09,192.128z"
			/>
		<g>
			<path fill="#9258A0" d="M47.308,204.865c-10.684,3.348-16.856,10.587-20.958,9.667c-1.735-0.389-4.25-7.583-2.078-9.833
				c-2.784-2.119-2.732-6.59-2.305-10.87c0.182-1.826,0.569-5.67,1.653-7.151c1.391-1.899,7.896-5.129,7.896-5.129
				s-7.244,0-9.583,3.222c0.626-13.275,2.992-26.655,2.992-26.655s-4.407,19.19-5.227,25.917c-1.059,8.687-0.404,27.352,3.72,34.986
				c0.764,1.414,6.451-2.284,7.5-2.986c8.382-5.6,12.813-8.113,16.39-9.542c9.118-3.643,17.528-3.84,22.004-3.589
				C64.505,202.544,55.366,202.34,47.308,204.865z"/>
			<path fill="#9258A0" d="M69.312,202.9c2.094,0.155,3.371,0.339,3.371,0.339S71.44,203.02,69.312,202.9z"/>
		</g>
	</g>
	<path fill="#9258A0" d="M23.021,134.353c0,0-16.838,10.512-17.769,57.614c-0.02,0.998-5.251-2.784-5.251-2.784
		s3.388-40.828,12.65-49.69C18.701,133.704,23.021,134.353,23.021,134.353z"/>
</g>
</svg>
