<?xml version="1.0" encoding="utf-8"?>
<!-- Generator: Adobe Illustrator 17.0.0, SVG Export Plug-In . SVG Version: 6.00 Build 0)  -->
<!DOCTYPE svg PUBLIC "-//W3C//DTD SVG 1.1//EN" "http://www.w3.org/Graphics/SVG/1.1/DTD/svg11.dtd">
<svg version="1.1" id="图层_1" xmlns="http://www.w3.org/2000/svg" xmlns:xlink="http://www.w3.org/1999/xlink" x="0px" y="0px"
	 width="100px" height="100.003px" viewBox="0 0 100 100.003" enable-background="new 0 0 100 100.003" xml:space="preserve">
<path fill="#FFFFFF" d="M93.665,87.487c0,2.158-1.749,3.908-3.908,3.908H13.082c-2.158,0-3.908-1.749-3.908-3.908V10.812
	c0-2.158,1.749-3.908,3.908-3.908h76.675c2.158,0,3.908,1.749,3.908,3.908V87.487z"/>
<g>
	<polygon fill="#EA654A" points="51.129,91.198 93.724,74.193 93.724,54.53 85.45,43.052 30.642,56.162 	"/>
	<polygon fill="#EA654A" points="72.164,15.969 87.572,37.341 93.724,35.869 93.724,17.038 90.476,13.256 	"/>
	<polygon fill="#EA654A" points="90.771,41.779 93.724,45.875 93.724,41.073 	"/>
	<path fill="#EA654A" d="M25.498,57.392L7.877,61.607v27.036c0,2.236,1.813,4.049,4.049,4.049H46.14L25.498,57.392z"/>
	<path fill="#EA654A" d="M27.972,51.596L82.25,38.613L63.194,12.181l29.142-4.317c-0.713-0.626-1.637-1.019-2.661-1.019H11.926
		c-2.236,0-4.049,1.813-4.049,4.049v6.337L27.972,51.596z"/>
	<path fill="#EA654A" d="M61.037,92.693h28.638c2.236,0,4.049-1.813,4.049-4.049v-9.001L61.037,92.693z"/>
	<polygon fill="#EA654A" points="7.877,27.257 7.877,56.403 22.828,52.827 	"/>
</g>
</svg>
