<?xml version="1.0" encoding="utf-8"?>
<!-- Generator: Adobe Illustrator 17.0.0, SVG Export Plug-In . SVG Version: 6.00 Build 0)  -->
<!DOCTYPE svg PUBLIC "-//W3C//DTD SVG 1.1//EN" "http://www.w3.org/Graphics/SVG/1.1/DTD/svg11.dtd">
<svg version="1.1" id="pdf" xmlns="http://www.w3.org/2000/svg" xmlns:xlink="http://www.w3.org/1999/xlink" x="0px" y="0px"
	 width="48px" height="48px" viewBox="0 0 48 48" enable-background="new 0 0 48 48" xml:space="preserve">
<g>
	<g>
		<path d="M34.875,12.309h3.054l-5.802-6.406v3.659C32.126,11.077,33.36,12.309,34.875,12.309z"/>
		<g>
			<path d="M19.041,9.787h-0.359v2.541h0.352c0.3,0,0.514-0.033,0.641-0.1s0.226-0.183,0.298-0.349s0.108-0.435,0.108-0.807
				c0-0.493-0.08-0.83-0.241-1.012C19.68,9.878,19.413,9.787,19.041,9.787z"/>
			<path d="M34.875,13.645c-2.252,0-4.083-1.832-4.083-4.083V5.903H14.267c-2.709,0-4.912,2.204-4.912,4.912v24.157
				c0,2.709,2.204,4.912,4.912,4.912h9.178l-1.751-2.069h-7.427c-1.157,0-2.153-0.696-2.596-1.69
				c-0.11-0.156-0.176-0.345-0.181-0.55c-0.042-0.194-0.066-0.396-0.066-0.603l0.063-17.681c0-0.512,0.446-0.958,0.996-0.958h22.394
				c0.55,0,0.996,0.446,0.996,0.996l-0.014,17.643c0,1.568-1.275,2.843-2.843,2.843h-0.874l-1.751,2.069h2.625
				c2.709,0,4.912-2.204,4.912-4.912V13.645H34.875z M16.05,11.262c-0.282,0.264-0.713,0.397-1.293,0.397H13.97v1.726h-1.443V8.733
				h2.389c0.52,0,0.91,0.124,1.169,0.371c0.259,0.247,0.389,0.6,0.389,1.056C16.475,10.631,16.333,10.998,16.05,11.262z
				 M21.355,12.2c-0.113,0.274-0.27,0.503-0.471,0.688c-0.201,0.185-0.417,0.308-0.647,0.37c-0.315,0.085-0.601,0.127-0.857,0.127
				h-2.135V8.733h2.135c0.421,0,0.761,0.057,1.02,0.171c0.259,0.114,0.473,0.278,0.642,0.492s0.292,0.462,0.368,0.746
				c0.076,0.283,0.114,0.584,0.114,0.901C21.525,11.54,21.469,11.926,21.355,12.2z M25.84,9.733h-2.11v0.812h1.802v0.939h-1.802v1.9
				h-1.444V8.733h3.553v1H25.84z"/>
			<path d="M14.38,9.679h-0.409v1.037h0.352c0.277,0,0.472-0.048,0.584-0.144c0.112-0.096,0.168-0.219,0.168-0.37
				c0-0.146-0.049-0.27-0.146-0.371C14.832,9.73,14.649,9.679,14.38,9.679z"/>
		</g>
	</g>
	<path d="M30.701,34.294v-8.579c0-0.917-0.743-1.66-1.66-1.66h-4.33c-0.917,0-1.66,0.743-1.66,1.66v8.579h-2.97l6.794,8.03
		l6.794-8.03H30.701z"/>
</g>
</svg>
