<?xml version="1.0" encoding="utf-8"?>
<!-- Generator: Adobe Illustrator 17.0.0, SVG Export Plug-In . SVG Version: 6.00 Build 0)  -->
<!DOCTYPE svg PUBLIC "-//W3C//DTD SVG 1.1//EN" "http://www.w3.org/Graphics/SVG/1.1/DTD/svg11.dtd">
<svg version="1.1" id="图层_1" xmlns="http://www.w3.org/2000/svg" xmlns:xlink="http://www.w3.org/1999/xlink" x="0px" y="0px"
	 width="100px" height="100.003px" viewBox="0 0 100 100.003" enable-background="new 0 0 100 100.003" xml:space="preserve">
<path fill="#FFFBBA" d="M87.804,42.277c-3.114,0-5.77,1.918-6.881,4.632h-1.659l-0.881-8.37l0.247-0.211l-0.309-0.382l-0.042-0.396
	l-0.262,0.021l-5.254-6.491l1.315-1.315c2.611,0.907,5.622,0.335,7.708-1.751c2.908-2.908,2.908-7.622,0-10.53
	c-2.908-2.908-7.622-2.908-10.53,0c-2.202,2.202-2.724,5.436-1.59,8.141l-1.173,1.173l-6.542-5.295l0.026-0.324l-0.489-0.052
	l-0.31-0.251l-0.17,0.2l-8.305-0.875v-1.86c2.488-1.205,4.212-3.739,4.212-6.688c0-4.112-3.334-7.446-7.446-7.446
	c-4.112,0-7.446,3.334-7.446,7.446c0,3.114,1.918,5.77,4.632,6.881v1.659l-8.37,0.881l-0.211-0.247l-0.382,0.309l-0.396,0.042
	l0.021,0.262l-6.491,5.254l-1.315-1.315c0.907-2.611,0.335-5.622-1.751-7.708c-2.908-2.908-7.622-2.908-10.53,0
	c-2.908,2.908-2.908,7.622,0,10.53c2.202,2.202,5.436,2.724,8.141,1.59l1.173,1.173l-5.295,6.542l-0.324-0.026l-0.052,0.489
	l-0.251,0.31l0.2,0.171l-0.875,8.305h-1.86c-1.205-2.488-3.739-4.212-6.688-4.212c-4.112,0-7.446,3.334-7.446,7.446
	c0,4.112,3.334,7.446,7.446,7.446c3.114,0,5.77-1.918,6.881-4.632h1.659l0.881,8.37l-0.247,0.211l0.31,0.382l0.042,0.396
	l0.262-0.021l5.254,6.491l-1.315,1.315c-2.611-0.907-5.622-0.335-7.708,1.751c-2.908,2.908-2.908,7.622,0,10.53
	c2.908,2.908,7.622,2.908,10.53,0c2.202-2.202,2.724-5.436,1.59-8.141l1.173-1.173l6.542,5.295l-0.026,0.324l0.489,0.052l0.31,0.251
	l0.17-0.2l8.305,0.875v1.86c-2.488,1.205-4.212,3.739-4.212,6.688c0,4.112,3.334,7.446,7.446,7.446c4.112,0,7.446-3.334,7.446-7.446
	c0-3.114-1.918-5.77-4.632-6.881v-1.659l8.37-0.881l0.211,0.247l0.382-0.309l0.396-0.042l-0.021-0.262l6.491-5.254l1.315,1.315
	c-0.907,2.611-0.335,5.622,1.751,7.708c2.908,2.908,7.622,2.908,10.53,0c2.908-2.908,2.908-7.622,0-10.53
	c-2.202-2.202-5.436-2.724-8.141-1.59l-1.173-1.173l5.295-6.542l0.324,0.026l0.052-0.489l0.251-0.31l-0.2-0.17l0.875-8.305h1.86
	c1.205,2.488,3.739,4.212,6.688,4.212c4.112,0,7.446-3.334,7.446-7.446C95.25,45.61,91.916,42.277,87.804,42.277z M70.524,66.609
	l-3.933-3.933l-2.269-2.269l-6.169-6.169l-1.263,1.334l4.703,6.383l-6.476-4.681l-1.241,1.241l6.169,6.169L63,67.638l3.252,3.252
	l-5.367,6.218l-8.336-0.613v-5.562v-3.209v-8.725l-1.836,0.05l-1.188,7.839l-1.269-7.889h-1.755v8.725v4.179v4.599l-8.192,0.602
	l-5.461-6.328l3.933-3.933l2.269-2.269l6.169-6.169l-1.333-1.263l-6.383,4.703l4.681-6.476l-1.241-1.241l-6.169,6.169l-2.955,2.955
	l-3.252,3.252l-6.218-5.367l0.613-8.336h5.562h3.209h8.725l-0.05-1.836l-7.839-1.188l7.889-1.269v-1.755h-8.725h-4.179h-4.599
	l-0.602-8.192l6.328-5.461l3.933,3.933l2.269,2.269l6.169,6.169l1.263-1.334l-4.703-6.383l6.476,4.681l1.241-1.241l-6.169-6.169
	l-2.955-2.955l-3.252-3.252l5.367-6.218l8.336,0.613v5.562v3.209v8.725l1.836-0.05l1.188-7.839l1.269,7.889h1.755v-8.725v-4.179
	v-4.599l8.192-0.602l5.461,6.328l-3.933,3.933l-2.269,2.269l-6.169,6.169l1.334,1.263l6.383-4.703l-4.681,6.476l1.241,1.241
	l6.169-6.169l2.955-2.955l3.252-3.252l6.218,5.367l-0.613,8.336H70.68h-3.209h-8.725l0.05,1.836l7.839,1.188l-7.889,1.269v1.755
	h8.725h4.179h4.599l0.602,8.192L70.524,66.609z"/>
</svg>
