<?xml version="1.0" encoding="utf-8"?>
<!-- Generator: Adobe Illustrator 17.0.0, SVG Export Plug-In . SVG Version: 6.00 Build 0)  -->
<!DOCTYPE svg PUBLIC "-//W3C//DTD SVG 1.1//EN" "http://www.w3.org/Graphics/SVG/1.1/DTD/svg11.dtd">
<svg version="1.1" id="layout1" xmlns="http://www.w3.org/2000/svg" xmlns:xlink="http://www.w3.org/1999/xlink" x="0px" y="0px"
	 width="122.553px" height="259px" viewBox="0 0 122.553 259" enable-background="new 0 0 122.553 259" xml:space="preserve">
<g>
	<g>
		<path fill="#6EACB1" d="M112.805,142.526c-3.57-7.078-14.168-9.679-14.168-9.679s-4.473,3.347-6.152,4.142
			c-2.651,1.254-9.323,3.743-9.323,3.743l-21.609,22.395l-21.898-22.462c0,0-7.627-1.458-10.294-2.678
			c-1.689-0.772-7.008-4.021-7.008-4.021s-8.837,1.754-12.316,8.877C4.91,153.34,1.746,171.601,0,188.88
			c3.774,4.595,16.283,3.424,17.792,3.09c-1.327,14.884-0.935,27.944,0.55,29.868c4.909,6.361,26.436,7.114,35.841,8.13
			c3.695,0.399,11.165,0.343,14.866,0c9.585-0.889,31.647-1.922,36.473-8.346c1.46-1.943,1.683-15.007,0.163-29.873
			c1.513,0.315,13.154,2.187,16.868-2.457C120.584,172.037,118.066,152.956,112.805,142.526z"/>
		<polygon fill="#538C8D" points="41.921,155.29 61.204,165.716 77.182,156.558 61.479,161.943 		"/>
		<circle fill="#538C8D" cx="62.198" cy="172.012" r="3.342"/>
		<circle fill="#538C8D" cx="62.198" cy="224.982" r="3.342"/>
		<g>
			<polygon fill="#31607A" points="76.657,149.86 61.885,181.248 46.975,149.567 41.013,150.007 56.615,183.158 61.143,182.824 
				61.055,183.011 67.017,183.451 82.62,150.3 			"/>
			<g>
				<path fill="#EFEFEF" d="M77.234,220.348c0,1.748-1.417,3.165-3.165,3.165H52.717c-1.748,0-3.165-1.417-3.165-3.165v-34.934
					c0-1.748,1.417-3.165,3.165-3.165h21.351c1.748,0,3.165,1.417,3.165,3.165L77.234,220.348L77.234,220.348z"/>
				<path fill="#FF4185" d="M69.389,191.517c-2.039-0.587-4.267,0.205-6.24,1.96c-1.907-1.827-4.105-2.7-6.164-2.188
					c-4.197,1.042-6.223,5.692-4.524,12.532c1.644,6.621,10.271,12.32,10.271,12.32s8.767-5.379,10.653-11.935
					C75.335,197.432,73.545,192.713,69.389,191.517z"/>
			</g>
		</g>
		<polygon fill="#96CDCD" points="89.568,138.13 82.939,140.222 61.276,160.544 39.654,140.665 32.324,138.983 30.109,144.931 
			45.499,150.201 41.921,155.29 61.552,163.126 77.182,156.558 74.538,152.992 93.523,144.93 		"/>
		<polygon fill="#67A2A6" points="17.792,191.969 20.194,165.069 9.436,191.969 		"/>
		<path fill="#538C8D" d="M105.685,191.749l-5.989-31.308c0,0-2.117,4.387-1.891,5.786c1.504,9.305,3.294,11.411,3.652,16.023
			l-12.067-4.736l11.767,12.773c3.184,4.481,1.012,21.428-0.63,27.214c-6.92,10.271-11.608,10.393-11.608,10.393
			s12.551-2.215,15.752-5.35C109.096,218.209,105.685,191.749,105.685,191.749z"/>
	</g>
</g>
<path fill="#96CDCD" d="M19.194,165.069l0.573,18.644l14.01-5.194c0,0-13.156,3.9-14.582,9.68
	c-0.228,2.641-0.334,24.271,2.207,31.738c5.1,3.576,14.97,6.769,20.181,8.964c-6.338,0-22.654-3.778-24.241-7.064
	C12.632,212.086,19.194,165.069,19.194,165.069z"/>
</svg>
