<?xml version="1.0" encoding="utf-8"?>
<!-- Generator: Adobe Illustrator 17.0.0, SVG Export Plug-In . SVG Version: 6.00 Build 0)  -->
<!DOCTYPE svg PUBLIC "-//W3C//DTD SVG 1.1//EN" "http://www.w3.org/Graphics/SVG/1.1/DTD/svg11.dtd">
<svg version="1.1" id="layout_1" xmlns="http://www.w3.org/2000/svg" xmlns:xlink="http://www.w3.org/1999/xlink" x="0px" y="0px"
	 width="119.107px" height="258.462px" viewBox="0 0 119.107 258.462" enable-background="new 0 0 119.107 258.462"
	 xml:space="preserve">
<g>
	<g>
		<g>
			<g>
				<g>
					<g>
						<path fill="#F6D9CA" d="M95.436,220.177l-3.793,17.305c0,0,8.378,5.545,10.136,8.311c0.789,1.241,2.529,4.708,1.445,5.702
							c-3.787,3.473-8.982,6.783-12.528,6.663c-6.226-0.21-13.04-4.865-20.743-5.879c-2.434-0.32-7.002-3.2-7.986-5.449
							c-3.339-7.631,0-33.317,0-33.317L95.436,220.177z"/>
					</g>
					<path fill="#DBBBAD" d="M71.159,233.69c0,0-4.733,7.293-3.821,9.465c1.609,3.832,6.755,4.794,16.051,10.509
						c9.295,5.716,13.214,2.653,13.214,2.653s-4.36,1.832-5.907,1.841c-3.589,0.022-13.758-4.103-13.758-4.103
						s-5.269-1.225-6.984-1.775c-9.47-3.04-9.012-9.54-9.012-9.54v-10.924L71.159,233.69z"/>
				</g>
				<g>
					<g>
						<path fill="#F6D9CA" d="M23.919,220.177l3.793,17.305c0,0-8.378,5.545-10.136,8.311c-0.789,1.241-2.529,4.708-1.445,5.702
							c3.787,3.473,8.982,6.783,12.528,6.663c6.226-0.21,13.04-4.865,20.743-5.879c2.434-0.32,7.002-3.2,7.986-5.449
							c3.339-7.631,0-33.317,0-33.317L23.919,220.177z"/>
					</g>
					<path fill="#DBBBAD" d="M48.196,233.69c0,0,4.733,7.293,3.821,9.465c-1.609,3.832-6.755,4.794-16.051,10.509
						s-13.214,2.653-13.214,2.653s4.36,1.832,5.907,1.841c3.589,0.022,13.758-4.103,13.758-4.103s5.269-1.225,6.984-1.775
						c9.47-3.04,9.012-9.54,9.012-9.54v-10.924L48.196,233.69z"/>
				</g>
			</g>
			<path fill="#C1A095" d="M86.725,226.31c4.983-1.906,13.006-8.406,12.624-13.656l-1.811,1.14
				c-2.982,1.525-18.369,8.838-39.277,8.838c-17.367,0-29.883-5.044-35.16-7.629l-2.742-1.395c0.01,0.241,3.373,9.122,9.117,11.847
				c7.109,3.373,19.197,4.563,29.718,4.702C69.717,230.295,81.74,228.217,86.725,226.31z"/>
			<g>
				<g>
					<g>
						<path fill="#F6D9CA" d="M119.09,199.365c-3.346-49.428-28.628-87.881-59.375-88.15v-0.013c-0.054,0-0.107,0.006-0.162,0.006
							c-0.054,0-0.107-0.006-0.162-0.006v0.013c-30.747,0.269-56.029,38.722-59.375,88.15c-0.248,3.668,2.318,10.223,3.741,11.91
							c6.188,7.333,15.07-1.176,15.07-1.176c-0.004-0.016-0.007-0.033-0.011-0.048c4.283,11.224,10.688,14.944,22.415,16.691
							c9.14,1.362,27.86,1.585,36.965,0c11.585-2.017,18.011-5.495,22.304-16.441c1.351,1.2,9.207,7.659,14.847,0.975
							C116.771,209.589,119.338,203.033,119.09,199.365z"/>
						<path fill="#C1A095" d="M29.771,143.106c0,0-9.704,24.223-11.972,30.948c-4.287,12.706-3.656,23.821-1.762,31.411
							C17.178,210.041,14.58,213,14.58,213l4.496-2.571c-1.996-6.941-2.81-17.216-1.154-27.389
							C21.139,163.269,29.771,143.106,29.771,143.106z"/>
						<path fill="#DBBBAD" d="M16.87,203.9c0.024,0.091,0.039,0.187,0.064,0.278c4.273,15.897,10.724,20.54,24.299,22.563
							c9.14,1.362,27.86,1.585,36.965,0c13.522-2.354,20.026-6.666,24.299-22.563c0.025-0.091,0.04-0.187,0.064-0.278
							c4.363-16.881-5.379-41.092-13.165-61.486c0,0,0.615,19.009,8.636,36.646c6.643,14.608,2.048,32.307-10.357,38.945
							c-6.803,3.64-28.983,1.709-28.983,1.709s-17.008,3.304-26.073,0c-8.095-2.951-18.037-9.588-15.355-33.027
							c2.084-18.208,12.509-43.581,12.509-43.581l-0.001,0.002C22.031,163.356,12.557,187.21,16.87,203.9z"/>
					</g>
					<circle fill="#FF958D" cx="39.739" cy="162.914" r="2.638"/>
					<circle fill="#FF958D" cx="78.457" cy="162.914" r="2.638"/>
					<path fill="#DDC6BC" d="M54.964,175.289c0,0-0.53,0.081-1.457,0.18c-0.925,0.111-2.247,0.224-3.864,0.263
						c-0.812,0.034-1.671,0.049-2.584,0.042c-0.916-0.002-1.868,0.008-2.851-0.013c-0.971-0.01-1.974-0.02-2.994-0.031
						c-0.507-0.011-0.998,0.027-1.501,0.027c-0.499,0.01-1.01,0.002-1.486,0.06l-1.454,0.106c-0.459,0.075-0.915,0.151-1.369,0.225
						l-0.341,0.054l-0.085,0.013l-0.043,0.007l-0.021,0.003l-0.011,0.002c-0.066,0.017,0.078-0.022,0.059-0.017l-0.181,0.049
						l-0.723,0.188c-0.463,0.132-0.769,0.254-1.175,0.392c-0.773,0.318-1.532,0.647-2.192,1.037
						c-0.666,0.381-1.275,0.778-1.826,1.161c-1.079,0.783-1.93,1.506-2.509,2.028c-0.578,0.523-0.897,0.841-0.897,0.841
						s0.088-0.389,0.398-1.039c0.31-0.648,0.83-1.567,1.729-2.577c0.452-0.503,0.979-1.04,1.65-1.547
						c0.647-0.523,1.431-1.024,2.326-1.474c0.45-0.217,1.024-0.456,1.492-0.619l0.7-0.23l0.177-0.056l0.082-0.022l0.013-0.003
						l0.026-0.005l0.051-0.011l0.103-0.021l0.413-0.084c0.552-0.109,1.111-0.233,1.675-0.322l1.689-0.146
						c0.57-0.058,1.118-0.044,1.669-0.049c0.548,0,1.105-0.006,1.636,0.019c1.058,0.058,2.117,0.106,3.098,0.209
						c1.984,0.188,3.804,0.413,5.353,0.616c0.774,0.09,1.486,0.197,2.12,0.291c0.641,0.071,1.199,0.154,1.659,0.218
						C54.439,175.19,54.964,175.289,54.964,175.289z"/>
					<path fill="#DDC6BC" d="M64.466,175.289c0,0,0.53,0.081,1.457,0.18c0.925,0.111,2.247,0.224,3.864,0.263
						c0.812,0.034,1.671,0.049,2.584,0.042c0.916-0.002,1.868,0.008,2.851-0.013c0.971-0.01,1.974-0.02,2.994-0.031
						c0.507-0.011,0.998,0.027,1.501,0.027c0.499,0.01,1.01,0.002,1.486,0.06l1.454,0.106c0.459,0.075,0.915,0.151,1.369,0.225
						l0.341,0.054l0.085,0.013l0.043,0.007l0.021,0.003l0.011,0.002c0.066,0.017-0.078-0.022-0.059-0.017l0.181,0.049l0.723,0.188
						c0.463,0.132,0.769,0.254,1.175,0.392c0.773,0.318,1.532,0.647,2.192,1.037c0.666,0.381,1.275,0.778,1.826,1.161
						c1.079,0.783,1.93,1.506,2.509,2.028c0.578,0.523,0.897,0.841,0.897,0.841s-0.088-0.389-0.398-1.039
						c-0.31-0.648-0.83-1.567-1.729-2.577c-0.452-0.503-0.979-1.04-1.65-1.547c-0.647-0.523-1.431-1.024-2.326-1.474
						c-0.45-0.217-1.024-0.456-1.492-0.619l-0.7-0.23l-0.177-0.056l-0.082-0.022l-0.013-0.003l-0.026-0.005l-0.051-0.011
						l-0.103-0.021l-0.413-0.084c-0.552-0.109-1.111-0.233-1.675-0.322l-1.689-0.146c-0.57-0.058-1.118-0.044-1.669-0.049
						c-0.548,0-1.105-0.006-1.636,0.019c-1.058,0.058-2.117,0.106-3.098,0.209c-1.984,0.188-3.804,0.413-5.353,0.616
						c-0.774,0.09-1.486,0.197-2.12,0.291c-0.641,0.071-1.199,0.154-1.659,0.218C64.99,175.19,64.466,175.289,64.466,175.289z"/>
					<path fill="#DBBBAD" d="M6.722,196.522c0,0,0.265,1.097,0.742,2.621c0.255,0.752,0.555,1.63,1.02,2.417
						c0.221,0.4,0.513,0.746,0.807,1.043l0.6,0.486c0.112,0.108,0.187,0.133,0.329,0.31c0.144,0.187,0.278,0.395,0.39,0.605
						c0.304,0.794,0.173,1.554-0.038,2.177c-0.224,0.627-0.604,1.125-0.993,1.557c-0.389,0.437-0.853,0.76-1.303,1.028
						c-0.462,0.258-0.937,0.418-1.381,0.519c-0.456,0.077-0.87,0.099-1.236,0.042c-0.362-0.012-0.66-0.17-0.897-0.23
						c-0.453-0.241-0.673-0.4-0.673-0.4s0.271,0.028,0.746,0.077c0.237-0.033,0.508,0.001,0.81-0.083
						c0.304-0.049,0.622-0.18,0.958-0.314c0.328-0.175,0.655-0.388,0.982-0.641c0.312-0.276,0.612-0.589,0.876-0.941
						c0.519-0.689,0.853-1.648,0.622-2.145c-0.029-0.024-0.035-0.05-0.031-0.095c-0.003-0.052-0.173-0.173-0.251-0.256l-0.075-0.069
						l-0.037-0.034l-0.019-0.017c-0.022-0.017,0.172,0.134,0.087,0.067l-0.006-0.005l-0.012-0.01l-0.197-0.16
						c-0.126-0.11-0.269-0.21-0.376-0.331c-0.457-0.471-0.753-1.015-0.985-1.53c-0.456-1.043-0.59-2.048-0.648-2.894
						C6.425,197.618,6.722,196.522,6.722,196.522z"/>
					<path fill="#DBBBAD" d="M111.985,197.957c0,0-0.265,1.097-0.742,2.621c-0.255,0.752-0.555,1.63-1.02,2.417
						c-0.221,0.4-0.513,0.746-0.807,1.043l-0.6,0.486c-0.112,0.108-0.187,0.133-0.329,0.31c-0.144,0.187-0.278,0.395-0.39,0.605
						c-0.304,0.794-0.173,1.554,0.038,2.177c0.224,0.627,0.604,1.125,0.993,1.557c0.389,0.437,0.853,0.76,1.303,1.028
						c0.462,0.258,0.937,0.418,1.381,0.519c0.456,0.077,0.87,0.099,1.236,0.042c0.362-0.012,0.66-0.17,0.897-0.23
						c0.453-0.241,0.673-0.4,0.673-0.4s-0.271,0.028-0.746,0.077c-0.237-0.033-0.508,0.001-0.81-0.083
						c-0.304-0.049-0.622-0.18-0.958-0.314c-0.328-0.175-0.655-0.388-0.982-0.641c-0.312-0.276-0.612-0.589-0.876-0.941
						c-0.519-0.689-0.853-1.647-0.622-2.145c0.029-0.024,0.035-0.05,0.031-0.095c0.003-0.052,0.173-0.173,0.251-0.256l0.075-0.069
						l0.037-0.034l0.019-0.017c0.022-0.017-0.172,0.134-0.087,0.067l0.006-0.005l0.012-0.01l0.197-0.16
						c0.126-0.11,0.269-0.21,0.376-0.331c0.457-0.471,0.753-1.015,0.985-1.53c0.456-1.043,0.59-2.048,0.648-2.894
						C112.281,199.053,111.985,197.957,111.985,197.957z"/>
				</g>
			</g>
			<g>
				<path fill="#DBBBAD" d="M90.619,224.065l-4.543,17.33c0,0,2.14,0.092,3.898-1.753c3.28-3.44,4.988-19.032,4.988-19.032
					s-3.552,4.051-7.549,5.414C86.067,226.483,90.619,224.065,90.619,224.065z"/>
			</g>
		</g>
		<ellipse fill="#C1A095" cx="61.27" cy="212.484" rx="2.888" ry="3.298"/>
		<g>
			<rect x="48.367" y="220.886" fill="#FCEBE3" width="5.828" height="5.828"/>
			<rect x="54.195" y="220.886" fill="#DBBBAD" width="5.828" height="5.828"/>
			<rect x="54.195" y="226.671" fill="#F6D9CA" width="5.828" height="5.828"/>
			<rect x="48.367" y="226.671" fill="#DBBBAD" width="5.828" height="5.828"/>
			<rect x="60.022" y="220.886" fill="#F6D9CA" width="5.828" height="5.828"/>
			<rect x="48.367" y="232.605" fill="#FCEBE3" width="5.828" height="5.828"/>
			<rect x="65.85" y="220.886" fill="#FCEBE3" width="5.828" height="5.828"/>
			<rect x="65.85" y="226.671" fill="#FCEBE3" width="5.828" height="5.828"/>
			<rect x="65.85" y="232.605" fill="#DBBBAD" width="5.828" height="5.828"/>
			<rect x="54.195" y="232.605" fill="#DBBBAD" width="5.828" height="5.828"/>
			<rect x="60.022" y="232.605" fill="#FCEBE3" width="5.828" height="5.828"/>
			<rect x="60.022" y="226.671" fill="#DBBBAD" width="5.828" height="5.828"/>
		</g>
	</g>
	<g>
		<g>
			<path fill="#F6D9CA" d="M104.073,116.349c0,10.997-8.915,19.912-19.912,22.316c0,0-11.739,3.859-24.494,3.859
				c-12.136,0-28.606-3.859-28.606-3.859c-10.997-2.403-19.912-11.319-19.912-22.316V43.813c0-10.997,8.915-19.912,19.912-19.912
				H84.16c10.997,0,19.912,8.915,19.912,19.912L104.073,116.349L104.073,116.349z"/>
			<path fill="#DBBBAD" d="M98.114,57.899c0,0,11.712,65.542-17.188,76.328c-13.102,4.89-34.559,5.581-46.738,3.457
				c-12.776-2.228-20.602-11.713-20.602-11.713s4.058,9.371,16.368,12.413c18.981,4.692,35.581,4.13,41.548,3.166
				c5.968-0.963,18.73-4.062,22.379-7.072c3.649-3.01,9.289-9.363,9.855-14.487c0.566-5.124,1.528-58.639,1.528-58.639
				L98.114,57.899z"/>
		</g>
		<path fill="#036EB8" d="M108.357,75.092l-1.552-4.73l-10.891,3.575v-0.34c0-3.29-2.677-5.967-5.967-5.967H66.283
			c-1.513,0-2.891,0.57-3.944,1.502c-1.621,1.169-2.671,2.994-2.671,5.049v2.489h-4.563v-2.489c0-0.554-0.083-1.09-0.225-1.603
			c-0.472-2.803-2.91-4.947-5.846-4.947h-23.44c-2.974,0-5.438,2.202-5.862,5.06c-0.043,0.167-0.077,0.337-0.106,0.509L8.271,69.473
			l-1.552,4.73l12.819,4.207v3.022h0.122v3.335c0,3.271,2.662,5.934,5.934,5.934h23.439c3.272,0,5.935-2.662,5.935-5.934v-3.119
			h5.348v3.26c0,3.29,2.677,5.967,5.967,5.967h23.665c3.29,0,5.967-2.677,5.967-5.967v-5.731L108.357,75.092z M49.033,85.701H25.594
			c-0.515,0-0.934-0.419-0.934-0.934V73.639c0.278-0.503,0.927-0.865,1.66-0.865h22.002c0.724,0,1.362,0.354,1.646,0.846v11.147
			C49.968,85.282,49.549,85.701,49.033,85.701z M89.948,85.875H66.283c-0.533,0-0.967-0.434-0.967-0.967V73.597
			c0-0.234,0.094-0.441,0.233-0.609c0.284-0.133,0.613-0.214,0.963-0.214h22.327c1.013,0,1.868,0.644,1.868,1.407v7.252h0.207v3.476
			C90.914,85.441,90.481,85.875,89.948,85.875z"/>
		<g>
			<path fill="#FFAB08" d="M72.813,121.59c0,6.972-5.652,12.625-12.625,12.625h-1.694c-6.972,0-12.625-5.652-12.625-12.625v-1.694
				c0-6.972,5.652-12.625,12.625-12.625h1.694c6.972,0,12.625,5.652,12.625,12.625V121.59z"/>
			<g>
				<path fill="#FFFFFF" d="M71.552,120.805c0,6.825-5.533,12.358-12.358,12.358h-1.658c-6.825,0-12.358-5.533-12.358-12.358v-1.658
					c0-6.825,5.533-12.358,12.358-12.358h1.658c6.825,0,12.358,5.533,12.358,12.358V120.805z"/>
				<path fill="#FFC42B" d="M72.003,121.357c0,6.825-5.533,12.358-12.358,12.358h-1.658c-6.825,0-12.358-5.533-12.358-12.358v-1.658
					c0-6.825,5.533-12.358,12.358-12.358h1.658c6.825,0,12.358,5.533,12.358,12.358V121.357z"/>
				<path fill="#FFAB08" d="M50.408,120.727c0-4.718,3.825-8.543,8.543-8.543l0,0c4.718,0,8.543,3.825,8.543,8.543l0,0
					c0,4.718-3.825,8.543-8.543,8.543l0,0C54.233,129.27,50.408,125.445,50.408,120.727L50.408,120.727z"/>
				<path fill="#FFDEB3" d="M50.389,119.976c0-4.176,3.386-7.562,7.562-7.562l0,0c4.176,0,7.562,3.386,7.562,7.562l0,0
					c0,4.176-3.386,7.562-7.562,7.562l0,0C53.774,127.538,50.389,124.153,50.389,119.976L50.389,119.976z"/>
				<path fill="#FFFFFF" d="M59.995,117.879c0,1.95-1.581,3.53-3.53,3.53l0,0c-1.95,0-3.53-1.581-3.53-3.53l0,0
					c0-1.95,1.581-3.53,3.53-3.53l0,0C58.415,114.349,59.995,115.929,59.995,117.879L59.995,117.879z"/>
			</g>
		</g>
		<path fill="#595757" d="M21.325,11.696C17.983,14.171,11.3,24.971,11.3,24.971S3.526,37.61,2.657,42.394
			C0.086,56.548,8.465,99.642,8.465,99.642l2.685,13.29l2.293-48.967l6.223-16.179c0,0,22.248-4.594,29.246-6.637
			s27.587-9.956,27.587-9.956l26.135,30.283l1.44,53.213c0,0,9.117-41.155,8.492-55.072c-0.376-8.381-3.572-25.489-8.066-32.573
			c-2.113-3.33-12.238-9.956-12.238-9.956s-5.999-11.487-9.541-13.69C76.842-0.257,55.342-0.75,55.342-0.75
			S28.602,6.307,21.325,11.696z"/>
	</g>
</g>
<ellipse fill="#F7BFB0" cx="32.564" cy="97.726" rx="9.813" ry="2.328"/>
<ellipse fill="#F7BFB0" cx="81.261" cy="97.726" rx="9.258" ry="2.328"/>
</svg>
