<?xml version="1.0" encoding="utf-8"?>
<!-- Generator: Adobe Illustrator 17.0.0, SVG Export Plug-In . SVG Version: 6.00 Build 0)  -->
<!DOCTYPE svg PUBLIC "-//W3C//DTD SVG 1.1//EN" "http://www.w3.org/Graphics/SVG/1.1/DTD/svg11.dtd">
<svg version="1.1" id="layout1" xmlns="http://www.w3.org/2000/svg" xmlns:xlink="http://www.w3.org/1999/xlink" x="0px" y="0px"
	 width="119.107px" height="29.057px" viewBox="0 210.737 119.107 29.057" enable-background="new 0 210.737 119.107 29.057"
	 xml:space="preserve">
<g>
	<path fill="#FFFFFF" d="M86.381,223.877c-4.985,1.979-16.818,4.121-27.339,3.977s-21.799-1.363-28.908-4.864
		c-4.732-2.33-8.843-6.986-9.8-9.401c0.044,2.895,0.508,13.278,4.859,17.67c5.082,5.129,30.14,8.858,31.746,7.78
		c1.605-1.077,1.336-3.163,1.336-3.163h1.869c0,0-0.453,1.389,1.584,2.802s26.416-2.29,31.498-7.42
		c3.593-3.627,4.535-11.339,4.779-15.549C95.749,220.079,90.185,222.367,86.381,223.877z"/>
	<path fill="#DCDDDD" d="M97.965,215.477c-2.256,4.369-7.064,6.604-10.868,8.114c-0.068,0.027-0.973,6.112-1.044,6.14l-2.618,5.913
		c-6.088,1.852-13.494,2.677-19.848,1.661c-1.125-0.18-1.52-0.117-1.484-0.086c-0.924-0.644-1.064-1.16-1.09-1.328
		c2.942-0.402,5.964-1.52,8.809-3.386c0,0-6.117,1.446-11.496,1.399s-10.285-2.166-10.285-2.166c2.293,2.43,5.336,3.831,8.677,4.212
		c-0.019,0.415-0.138,1.112-0.699,1.552c-0.109,0.018-2.534,0.875-3.031,0.872c-17.214-0.129-27.794-7.115-27.794-7.115
		c4.924,4.969,24.252,8.78,29.966,8.78c1.118,0,1.721-0.112,2.147-0.397c0.885-0.595,1.389-1.418,1.653-2.227
		c0.327,0.614,0.872,1.258,1.732,1.854c0.376,0.259,1.011,0.525,2.896,0.525c5.327,0,19.371-2.237,26.707-5.795
		c1.54-0.568,2.903-1.207,3.522-1.857c3.485-3.656,4.625-11.173,4.625-11.173l0.946-10.232
		C99.387,210.737,98.554,213.589,97.965,215.477z"/>
</g>
</svg>
