<?xml version="1.0" encoding="utf-8"?>
<!-- Generator: Adobe Illustrator 17.0.0, SVG Export Plug-In . SVG Version: 6.00 Build 0)  -->
<!DOCTYPE svg PUBLIC "-//W3C//DTD SVG 1.1//EN" "http://www.w3.org/Graphics/SVG/1.1/DTD/svg11.dtd">
<svg version="1.1" id="weibo_icon" xmlns="http://www.w3.org/2000/svg" xmlns:xlink="http://www.w3.org/1999/xlink" x="0px" y="0px"
	 width="48px" height="48px" viewBox="0 0 48 48" enable-background="new 0 0 48 48" xml:space="preserve">
<g id="Label">
</g>
<g id="Grid" display="none">
	<g display="inline">
		<line fill="none" stroke="#00E5FF" stroke-width="0.1" stroke-miterlimit="10" x1="42.438" y1="-1208" x2="42.438" y2="2344"/>
	</g>
</g>
<path d="M34.111,6.774H13.889c-2.253,0-4.078,1.826-4.078,4.078v26.17c0,2.253,1.826,4.079,4.078,4.079h7.028
	c0.103-0.867,0.26-1.704,0.469-2.5h-7.497c-0.87,0-1.578-0.708-1.578-1.579v-26.17c0-0.87,0.708-1.578,1.578-1.578h20.223
	c0.87,0,1.578,0.708,1.578,1.578v25.75c0.443,1.084,0.781,2.282,0.998,3.558c0.909-0.748,1.502-1.868,1.502-3.137v-26.17
	C38.19,8.6,36.364,6.774,34.111,6.774z"/>
<g>
	<rect x="14.677" y="11.6" width="18.646" height="1"/>
</g>
<g>
	<rect x="14.677" y="16.335" width="18.646" height="1"/>
</g>
<g>
	<rect x="14.677" y="21.07" width="7.312" height="1"/>
</g>
<g>
	<rect x="14.677" y="25.805" width="5.83" height="1"/>
</g>
<g>
	<rect x="14.677" y="30.54" width="8.375" height="1"/>
</g>
<g>
	<rect x="14.677" y="35.275" width="5.83" height="1"/>
</g>
<path d="M22.027,41.226h13.099c0-4.573-1.904-8.445-4.534-9.779c1.938-0.795,3.305-2.695,3.305-4.92
	c0-2.938-2.382-5.321-5.321-5.321s-5.321,2.382-5.321,5.321c0,2.224,1.367,4.125,3.305,4.92
	C23.931,32.782,22.027,36.653,22.027,41.226z"/>
</svg>
