<?xml version="1.0" encoding="utf-8"?>
<!-- Generator: Adobe Illustrator 17.0.0, SVG Export Plug-In . SVG Version: 6.00 Build 0)  -->
<!DOCTYPE svg PUBLIC "-//W3C//DTD SVG 1.1//EN" "http://www.w3.org/Graphics/SVG/1.1/DTD/svg11.dtd">
<svg version="1.1" id="layout_1" xmlns="http://www.w3.org/2000/svg" xmlns:xlink="http://www.w3.org/1999/xlink" x="0px" y="0px"
	 width="243.333px" height="56px" viewBox="0 0 243.333 56" enable-background="new 0 0 243.333 56" xml:space="preserve">
<g opacity="0.5">
	<path fill="#595757" d="M29.333,28.272c3.256-3.735,4.79-7.034,4.558-9.84c-0.764-5.428-4.558-8.18-11.276-8.18
		c-0.67,0-1.38,0.028-2.128,0.084c-3.857,0.423-7.675,1.886-11.362,4.352l-0.1-2.293L8.661,12.29
		c-0.878-0.258-1.519-0.352-2.045-0.31c-1.61,0.132-1.842,0.273-1.929,0.326l-0.233,0.142l-0.02,0.272
		C3.738,22.173,3.78,31.743,4.56,41.197c0.187,2.269,0.381,4.615,0.686,6.974l0.049,0.378l0.373,0.074
		c0.517,0.103,0.999,0.153,1.476,0.153c0.203,0,0.391-0.009,0.565-0.023c0.726-0.06,1.252-0.182,1.706-0.396l0.321-0.152
		L9.717,47.85C8.961,33.318,8.764,24.288,9.113,20.266c3.847-3.083,7.828-4.866,11.819-5.301c4.946-0.356,7.543,1.011,7.856,4.196
		c0.183,2.221-1.798,5.494-5.888,9.729l-0.498,0.515l0.639,0.325c5.237,2.664,8.004,5.36,8.22,7.983
		c0.091,3.57-2.133,5.493-6.798,5.878c-3.021,0.251-6.466-0.556-10.292-2.402l-0.419-0.202l-0.254,0.389
		c-0.774,1.185-1.189,2.237-1.235,3.128l-0.016,0.317l0.272,0.164c4.271,2.579,8.364,3.738,12.292,3.409
		c8.111-0.783,12.007-4.506,11.581-11.073C36.134,34.203,33.823,31.239,29.333,28.272z"/>
	<path fill="#595757" d="M59.001,23.982c-2.374-1.849-5.371-2.635-8.976-2.338c-3.833,0.317-6.937,2.07-9.234,5.223
		c-1.638,2.369-2.29,5.27-1.994,8.869c0.269,3.27,1.564,5.883,3.864,7.779c2.223,1.7,5.129,2.563,8.639,2.563
		c0.525,0,1.063-0.019,1.622-0.057c2.665-0.22,5.09-1.114,7.412-2.734l0.302-0.211l-0.093-0.356
		c-0.37-1.426-0.836-2.412-1.467-3.105l-0.284-0.312l-0.368,0.207c-1.845,1.039-3.771,1.648-5.724,1.809
		c-3.882,0.324-6.518-0.789-7.987-3.41c10.001-1.277,15.937-2.383,18.123-3.372c0.393-0.167,0.592-0.599,0.45-2.325
		C62.955,28.88,61.519,26.115,59.001,23.982z M58.011,31.34l-3.026,0.509c-5.646,0.95-9.309,1.566-11.135,1.847
		c0.072-1.933,0.605-3.486,1.619-4.734c1.359-1.659,3.038-2.582,4.989-2.743c0.298-0.025,0.589-0.037,0.873-0.037
		c2.205,0,3.992,0.74,5.282,2.165C57.318,29.275,57.795,30.3,58.011,31.34z"/>
	<path fill="#595757" d="M91.308,41.045c-0.009-0.269-0.018-0.526-0.037-0.77c-0.2-2.418-0.623-6.195-1.259-11.224
		c-0.644-5.136-1.232-8.277-1.77-9.378c-0.169-0.28-0.499-0.38-1.259-0.38c-0.248,0-0.551,0.012-0.981,0.053
		c-0.811,0.185-1.437,0.354-1.86,0.579l-0.308,0.163l0.028,0.348c0.057,0.697,0.13,1.462,0.217,2.286l-0.018-0.02
		c-1.852-2.056-4.161-3.098-6.861-3.098c-0.297,0-0.6,0.012-0.917,0.039c-3.069,0.312-5.639,1.539-7.647,3.659
		c-2.321,2.612-3.339,5.864-3.025,9.667c0.307,3.711,1.819,6.663,4.516,8.79c1.972,1.4,4.287,2.111,6.881,2.11
		c0.418,0,0.844-0.018,1.277-0.053c2.94-0.243,5.674-1.731,8.142-4.429c0.142,0.844,0.361,1.891,0.64,3.034l0.107,0.44l0.451-0.037
		c0.776-0.064,1.883-0.156,3.264-0.326l0.505-0.062l-0.042-0.507C91.326,41.622,91.317,41.326,91.308,41.045z M84.144,23.345
		c0.326,2.984,0.82,6.676,1.437,10.727c-2.452,3.174-5.016,4.892-7.623,5.107c-1.966,0.165-3.591-0.334-4.946-1.528
		c-1.429-1.305-2.209-2.972-2.384-5.094c-0.194-2.353,0.39-4.323,1.724-5.842c1.352-1.425,2.773-2.205,4.326-2.383
		c0.173-0.014,0.345-0.022,0.519-0.022c1.56,0,3.143,0.583,4.705,1.732l0.337,0.248l0.32-0.27
		C83.354,25.346,83.874,24.47,84.144,23.345z"/>
	<path fill="#595757" d="M112.883,17.469l-0.4-0.072c-1.907-0.342-3.485-0.448-5.04-0.322c-3.437,0.283-6.612,1.629-9.452,4.002
		l-0.634-3.025l-1.304,0.003c-0.296,0-0.533,0.004-0.719,0.019c-0.357,0.029-0.806,0.128-1.376,0.252l-1.111,0.237l0.038,0.466
		c0.257,3.101,0.748,7.026,1.463,11.67c0.93,5.685,1.671,9.276,2.331,11.304l0.13,0.398l0.417-0.034
		c2.539-0.21,3.221-0.481,3.531-0.694l0.253-0.174l-0.025-0.306c-0.006-0.069-0.008-0.169-0.01-0.299
		c-0.006-0.277-0.015-0.675-0.057-1.192c-0.108-1.31-0.78-5.7-2.113-13.807c3.097-2.54,6.483-3.977,10.066-4.272
		c0.757-0.064,1.907-0.048,3.433-0.009l0.415,0.01l0.11-0.4c0.188-0.689,0.217-1.785,0.088-3.348L112.883,17.469z"/>
	<path fill="#595757" d="M138.612,35.564l-0.426-0.201l-0.666,1.061c-0.366,0.578-0.756,1.196-1.171,1.888l-0.24,0.401l0.367,0.289
		c1.751,1.373,3.718,2.48,5.845,3.291l0.38,0.145l0.238-0.329c0.628-0.869,1.133-1.761,1.499-2.65l0.165-0.401l-0.361-0.241
		C142.192,37.448,140.351,36.385,138.612,35.564z"/>
	<path fill="#595757" d="M128.73,22.36c0.819-1.375,1.474-2.675,1.994-3.955l0.154-0.379l-0.327-0.245
		c-0.801-0.6-1.792-1.022-3.034-1.293l-0.324-0.07l-0.205,0.26c-1.361,1.724-2.451,3.479-3.326,5.356
		c-0.465-0.013-0.955-0.052-1.444-0.089l-0.51-0.039l-0.057,0.509c-0.099,0.892-0.099,1.882-0.099,2.84v0.428l0.418,0.09
		c2.258,0.487,4.801,0.825,7.762,1.032c-0.201,5.266-0.306,9.916-0.314,13.839c-2.872-0.012-5.586-0.125-8.266-0.342
		c-0.038-0.87-0.069-1.749-0.1-2.632c-0.029-0.814-0.057-1.632-0.092-2.45c0.335,0.011,0.713,0.011,1.123,0.011
		c2.035,0,3.193-0.073,3.999-0.252l0.373-0.108l0.041-0.377c0.048-0.43,0.096-0.876,0.096-1.375c0-0.58-0.102-1.093-0.203-1.59
		l-0.077-0.383l-0.388-0.04c-0.927-0.098-2.156-0.147-3.651-0.147c-0.417,0-0.807,0.014-1.169,0.027
		c-0.115,0.004-0.228,0.008-0.336,0.012c-0.096-2.331-0.233-4.688-0.364-6.972l-0.029-0.499h-0.5c-1.046,0-2.139,0.092-3.26,0.194
		l-0.488,0.044l0.006,0.49c0.094,7.183,0.417,13.635,0.961,19.177l0.034,0.347l0.332,0.106c2.247,0.716,5.092,1.079,8.458,1.079
		c4.019,0,6.12-0.171,7.024-0.573l0.268-0.119l0.041-0.291c0.639-4.532,0.964-11.461,0.964-20.596v-0.477l-0.474-0.05
		C132.168,22.692,130.488,22.526,128.73,22.36z"/>
	<path fill="#595757" d="M143.477,24.644c0.926-1.876,1.694-3.536,2.398-5.175l0.169-0.395l-0.351-0.247
		c-0.943-0.665-1.771-1.126-2.607-1.451l-0.421-0.164l-0.229,0.389c-2.669,4.546-5.113,9.174-7.262,13.757l-0.154,0.326l0.248,0.262
		c0.921,0.975,1.918,1.574,3.047,1.831l0.388,0.088l0.192-0.347c0.893-1.604,1.753-3.272,2.626-4.97
		c2.66,0.257,5.504,0.517,8.592,0.704c-0.126,3.708-0.214,7.198-0.263,10.389c-0.669,0.013-1.365,0.048-2.089,0.084l-0.652,0.033
		v0.504c0,0.675,0,1.516,0.099,2.408l0.043,0.385l0.38,0.076c0.69,0.138,1.576,0.202,2.789,0.202c1.078,0,1.998-0.099,2.813-0.304
		l0.371-0.093l0.029-0.381c0.383-5.077,0.577-10.624,0.577-16.487V25.59l-0.476-0.049C150.264,25.187,146.825,24.909,143.477,24.644
		z"/>
	<path fill="#595757" d="M186.925,9.357c0.428-0.947,0.811-1.712,1.087-2.265l0.215-0.431l-0.409-0.255
		c-0.923-0.576-2.067-0.947-3.496-1.133l-0.348-0.046l-0.178,0.303c-2.74,4.68-4.559,8.577-5.561,11.916l-0.117,0.387l0.343,0.214
		c0.926,0.579,2.031,0.949,3.382,1.134l0.384,0.052l1.021-2.148c0.611-1.28,1.185-2.487,1.696-3.606
		c4.365,0.98,8.792,1.476,13.167,1.476h0.429l0.089-0.42c0.241-1.143,0.402-2.091,0.402-3.004v-0.448l-0.443-0.074
		C194.166,10.271,190.434,9.742,186.925,9.357z"/>
	<path fill="#595757" d="M175.963,27.614l0.228-0.259c0.379-0.432,0.731-0.978,1.028-1.59c0.389-0.519,0.632-1.087,0.847-1.623
		l0.165-0.412l-0.376-0.235c-1.901-1.187-3.689-2.241-5.314-3.132l-0.343-0.188c0.028,0.003,0.055,0.007,0.083,0.01l0.379,0.044
		l0.162-0.345c0.501-1.062,0.824-2.035,0.989-2.973l0.082-0.462l-0.45-0.136c-2.033-0.616-3.59-1.077-5.109-1.403l-0.39-0.084
		l-0.188,0.353c-0.425,0.797-0.732,1.716-0.996,2.979l-0.088,0.419l0.391,0.174c1.656,0.735,3.329,1.2,5.113,1.421l-0.274,0.294
		c-0.862,0.918-1.517,2.015-2.005,3.354l-0.127,0.35l0.285,0.238c1.752,1.459,3.577,2.475,5.58,3.104L175.963,27.614z"/>
	<path fill="#595757" d="M198.686,24.876l-0.441-0.064c-5.341-0.782-9.456-1.264-13.339-1.563l-0.446-0.034l-0.109,0.434
		c-0.198,0.793-0.239,1.385-0.239,1.743v2.103l0.426,0.085c2.955,0.591,6.061,1.086,9.482,1.508
		c-0.002,5.818-0.05,11.66-0.107,18.095c-0.89,0.003-1.804,0.018-2.755,0.113l-0.341,0.034l-0.109,0.325
		c-0.139,0.416-0.139,0.917-0.139,1.448c0,0.654,0.139,1.292,0.39,1.796l0.128,0.258l0.287,0.032c1.027,0.114,2.211,0.17,3.621,0.17
		c0.971,0,1.992-0.057,2.98-0.112l0.428-0.024l0.065-0.424c0.341-2.216,0.507-5.283,0.507-9.377c0-4.099-0.086-9.064-0.278-16.101
		L198.686,24.876z"/>
	<path fill="#595757" d="M194.127,20.465l0.134-0.328c0.39-0.944,0.638-1.938,0.761-3.037l0.049-0.44l-0.424-0.126
		c-1.967-0.584-4.01-1.045-6.245-1.407l-0.395-0.064l-0.17,0.363c-0.444,0.952-0.715,1.954-0.825,3.065l-0.042,0.413l0.392,0.139
		c2.625,0.93,4.842,1.422,6.411,1.422C193.773,20.465,194.127,20.465,194.127,20.465z"/>
	<path fill="#595757" d="M166.449,29.192l-0.394-0.088c-0.921-0.203-1.969-0.359-3.415,0.004l-0.323,0.081l-0.067,0.325
		c-0.321,1.547-0.457,4.609-0.457,10.238c0,4.947,0.332,8.792,1.016,11.753l0.095,0.411h0.421c0.23,0,0.471,0.012,0.724,0.025
		c0.3,0.015,0.614,0.031,0.945,0.031c0.667,0,1.206-0.062,1.648-0.187l0.385-0.11v-0.4c0-7.092-0.182-14.184-0.558-21.679
		L166.449,29.192z"/>
	<path fill="#595757" d="M163.578,19.826l0.203-0.345c1.084-1.842,2.248-3.855,3.452-6.137c3.238,0.552,6.586,0.832,9.952,0.832
		h0.434l0.085-0.426c0.211-1.056,0.4-2.079,0.4-2.998v-0.456l-0.451-0.068c-2.5-0.378-5.236-0.703-8.342-0.992
		c0.078-0.164,0.155-0.331,0.235-0.5c0.208-0.445,0.423-0.905,0.654-1.366l0.209-0.418l-0.389-0.259
		c-0.967-0.644-2.121-1.174-3.529-1.622l-0.422-0.134l-0.207,0.391c-3.102,5.866-5.074,9.812-6.03,12.064l-0.134,0.316l0.234,0.251
		c0.756,0.814,1.822,1.392,3.26,1.766L163.578,19.826z"/>
	<path fill="#595757" d="M176.652,30.596l-0.493-0.023l-0.058,0.491c-0.114,0.976-0.114,1.992-0.114,3.067v0.431l0.422,0.087
		c2.349,0.49,5.092,0.836,8.597,1.086c-0.286,2.832-0.373,5.048-0.389,6.548c-2.943-0.016-6.023-0.167-9.388-0.458
		c-0.029-0.401-0.054-0.813-0.067-1.224c0.391,0.016,0.823,0.016,1.298,0.016c1.938,0,3.14-0.072,3.896-0.235l0.369-0.079
		l0.046-0.374c0.056-0.45,0.115-0.976,0.115-1.512c0-0.593-0.113-1.182-0.235-1.729l-0.087-0.387l-0.395-0.026
		c-1.114-0.074-2.305-0.112-3.543-0.112h-1.684c-0.037-0.464-0.068-0.929-0.1-1.399c-0.041-0.607-0.083-1.22-0.137-1.846
		l-0.041-0.484h-0.486c-1.084,0-2.098,0.101-3.17,0.208l-0.651,0.065l0.006,0.486c0.054,4.333,0.261,8.301,0.615,11.792l0.035,0.352
		l0.339,0.102c2.265,0.68,5.089,1.024,8.391,1.024c4.858,0,7.524-0.125,8.644-0.405l0.314-0.079l0.073-0.316
		c0.684-2.96,1.016-7.388,1.016-13.534v-0.47l-0.466-0.056C185.61,31.157,181.346,30.819,176.652,30.596z"/>
	<path fill="#595757" d="M238.652,43.038c-0.134-4.591-0.632-9.663-1.479-15.075l-0.076-0.479l-0.483,0.032
		c-4.084,0.272-8.252,0.64-12.403,1.096c0.302-1.964,0.604-3.935,0.893-5.984l0.077-0.546l-0.548-0.055
		c-1.219-0.122-2.189-0.178-3.05-0.178l-0.665,0.007l-0.086,0.417c-0.43,2.08-0.85,4.335-1.28,6.882
		c-2.262,0.308-4.588,0.628-6.841,0.98l-0.389,0.061l-0.054,0.39c-0.068,0.498-0.064,0.976,0.012,1.463l0.301,1.924l0.461-0.008
		c1.754-0.029,3.598-0.129,5.757-0.312c-0.743,4.687-1.312,9.382-1.692,13.967l-0.033,0.392l0.366,0.144
		c0.911,0.36,1.909,0.543,2.965,0.543l0.676-0.014l0.067-0.438c0.772-5.03,1.549-10.015,2.334-14.955
		c3.156-0.238,6.393-0.61,9.638-1.104c0.46,2.97,0.831,5.598,1.138,7.83c-0.955,0.162-1.981,0.371-3.056,0.622l-0.343,0.08
		l-0.059,0.347c-0.062,0.366-0.054,0.761,0.027,1.283c0.069,0.433,0.202,0.931,0.375,1.404l0.129,0.351l0.373-0.004
		c2.26-0.023,4.386-0.195,6.499-0.525l0.461-0.072L238.652,43.038z"/>
	<path fill="#595757" d="M206.068,20.267l0.489-0.038c9.155-0.722,18.802-1.871,28.676-3.414l0.451-0.071l-0.003-0.456
		c-0.007-1.119-0.085-2.133-0.236-3.1l-0.076-0.482l-0.487,0.036c-9.999,0.746-19.355,1.812-28.604,3.258l-0.409,0.064l-0.037,0.412
		c-0.088,0.974-0.035,2.055,0.16,3.307L206.068,20.267z"/>
	<path fill="#595757" d="M212.483,22.392l-0.45-0.115c-0.997-0.254-2.015-0.451-3.111-0.601l-0.465-0.064l-0.119,0.454
		c-1.481,5.644-2.719,11.767-3.679,18.198l-0.054,0.355l0.31,0.181c0.922,0.536,1.975,0.848,3.132,0.928l0.426,0.029l0.119-0.41
		c1.835-6.327,3.126-12.55,3.835-18.494L212.483,22.392z"/>
</g>
<g>
	<path fill="#A03F1A" d="M28.299,26.101c3.256-3.735,4.79-7.034,4.558-9.84c-0.764-5.428-4.558-8.18-11.276-8.18
		c-0.67,0-1.38,0.028-2.128,0.084c-3.857,0.423-7.675,1.886-11.362,4.352l-0.1-2.293l-0.364-0.107
		c-0.878-0.258-1.519-0.352-2.045-0.31c-1.61,0.132-1.842,0.273-1.929,0.326L3.42,10.276L3.4,10.548
		c-0.696,9.453-0.654,19.023,0.126,28.477c0.187,2.269,0.381,4.615,0.686,6.974l0.049,0.378l0.373,0.074
		c0.517,0.103,0.999,0.153,1.476,0.153c0.203,0,0.391-0.009,0.565-0.023c0.726-0.06,1.252-0.182,1.706-0.396l0.321-0.152
		l-0.018-0.355C7.928,31.147,7.73,22.116,8.08,18.094c3.847-3.083,7.828-4.866,11.819-5.301c4.946-0.356,7.543,1.011,7.856,4.196
		c0.183,2.221-1.798,5.494-5.888,9.729l-0.498,0.515l0.639,0.325c5.237,2.664,8.004,5.36,8.22,7.983
		c0.091,3.57-2.133,5.493-6.798,5.878c-3.021,0.251-6.466-0.556-10.292-2.402l-0.419-0.202l-0.254,0.389
		c-0.774,1.185-1.189,2.237-1.235,3.128l-0.016,0.317l0.272,0.164c4.271,2.579,8.364,3.738,12.292,3.409
		c8.111-0.783,12.007-4.506,11.581-11.073C35.1,32.032,32.79,29.068,28.299,26.101z"/>
	<path fill="#A03F1A" d="M57.968,21.81c-2.374-1.849-5.371-2.635-8.976-2.338c-3.833,0.317-6.937,2.07-9.234,5.223
		c-1.638,2.369-2.29,5.27-1.994,8.869c0.269,3.27,1.564,5.883,3.864,7.779c2.223,1.7,5.129,2.563,8.639,2.563
		c0.525,0,1.063-0.019,1.622-0.057c2.665-0.22,5.09-1.114,7.412-2.734l0.302-0.211l-0.093-0.356
		c-0.37-1.426-0.836-2.412-1.467-3.105l-0.284-0.312l-0.368,0.207c-1.845,1.039-3.771,1.648-5.724,1.809
		c-3.882,0.324-6.518-0.789-7.987-3.41c10.001-1.277,15.937-2.383,18.123-3.372c0.393-0.167,0.592-0.599,0.45-2.325
		C61.921,26.708,60.485,23.944,57.968,21.81z M56.977,29.168l-3.026,0.509c-5.646,0.95-9.309,1.566-11.135,1.847
		c0.072-1.933,0.605-3.486,1.619-4.734c1.359-1.659,3.038-2.582,4.989-2.743c0.298-0.025,0.589-0.037,0.873-0.037
		c2.205,0,3.992,0.74,5.282,2.165C56.284,27.103,56.762,28.129,56.977,29.168z"/>
	<path fill="#A03F1A" d="M90.274,38.874c-0.009-0.269-0.018-0.526-0.037-0.77c-0.2-2.418-0.623-6.195-1.259-11.224
		c-0.644-5.136-1.232-8.277-1.77-9.378c-0.169-0.28-0.499-0.38-1.259-0.38c-0.248,0-0.551,0.012-0.981,0.053
		c-0.811,0.185-1.437,0.354-1.86,0.579L82.8,17.917l0.028,0.348c0.057,0.697,0.13,1.462,0.217,2.286l-0.018-0.02
		c-1.852-2.056-4.161-3.098-6.861-3.098c-0.297,0-0.6,0.012-0.917,0.039c-3.069,0.312-5.639,1.539-7.647,3.659
		c-2.321,2.612-3.339,5.864-3.025,9.667c0.307,3.711,1.819,6.663,4.516,8.79c1.972,1.4,4.287,2.111,6.881,2.11
		c0.418,0,0.844-0.018,1.277-0.053c2.94-0.243,5.674-1.731,8.142-4.429c0.142,0.844,0.361,1.891,0.64,3.034l0.107,0.44l0.451-0.037
		c0.776-0.064,1.884-0.156,3.264-0.326l0.505-0.062l-0.042-0.507C90.292,39.45,90.283,39.155,90.274,38.874z M83.11,21.174
		c0.326,2.984,0.82,6.676,1.437,10.727c-2.452,3.174-5.016,4.892-7.623,5.107c-1.966,0.165-3.591-0.334-4.946-1.528
		c-1.429-1.305-2.209-2.972-2.384-5.094c-0.194-2.353,0.39-4.323,1.724-5.842c1.352-1.425,2.773-2.205,4.326-2.383
		c0.173-0.014,0.345-0.022,0.519-0.022c1.56,0,3.143,0.583,4.705,1.732l0.337,0.248l0.32-0.27
		C82.32,23.175,82.841,22.298,83.11,21.174z"/>
	<path fill="#A03F1A" d="M111.85,15.297l-0.4-0.072c-1.907-0.342-3.485-0.448-5.04-0.322c-3.437,0.283-6.612,1.629-9.452,4.002
		l-0.634-3.025l-1.304,0.003c-0.296,0-0.533,0.004-0.719,0.019c-0.357,0.029-0.806,0.128-1.376,0.252l-1.111,0.237l0.038,0.466
		c0.257,3.101,0.748,7.026,1.463,11.67c0.93,5.685,1.671,9.276,2.331,11.304l0.13,0.398l0.417-0.034
		c2.539-0.21,3.221-0.481,3.531-0.694l0.253-0.174l-0.025-0.306c-0.006-0.069-0.008-0.169-0.01-0.299
		c-0.006-0.277-0.015-0.675-0.057-1.192c-0.108-1.31-0.78-5.7-2.113-13.807c3.097-2.54,6.483-3.977,10.066-4.272
		c0.757-0.064,1.907-0.048,3.433-0.009l0.415,0.01l0.11-0.4c0.188-0.689,0.217-1.785,0.088-3.348L111.85,15.297z"/>
	<path fill="#A03F1A" d="M137.578,33.393l-0.426-0.201l-0.666,1.061c-0.366,0.578-0.756,1.196-1.171,1.888l-0.24,0.401l0.367,0.289
		c1.751,1.373,3.718,2.48,5.845,3.291l0.38,0.145l0.238-0.329c0.628-0.869,1.133-1.761,1.499-2.65l0.165-0.401l-0.361-0.241
		C141.158,35.277,139.317,34.214,137.578,33.393z"/>
	<path fill="#A03F1A" d="M127.697,20.189c0.819-1.375,1.474-2.675,1.994-3.955l0.154-0.379l-0.327-0.245
		c-0.801-0.6-1.792-1.022-3.034-1.293l-0.324-0.07l-0.205,0.26c-1.361,1.724-2.451,3.479-3.326,5.356
		c-0.465-0.013-0.955-0.052-1.444-0.089l-0.51-0.039l-0.057,0.509c-0.099,0.892-0.099,1.882-0.099,2.84v0.428l0.418,0.09
		c2.258,0.487,4.801,0.825,7.762,1.032c-0.201,5.266-0.306,9.916-0.314,13.839c-2.872-0.012-5.586-0.125-8.266-0.342
		c-0.038-0.87-0.069-1.749-0.1-2.632c-0.029-0.814-0.057-1.632-0.092-2.45c0.335,0.011,0.713,0.011,1.123,0.011
		c2.035,0,3.193-0.073,3.999-0.252l0.373-0.108l0.041-0.377c0.048-0.43,0.096-0.876,0.096-1.375c0-0.58-0.102-1.093-0.203-1.59
		l-0.077-0.383l-0.388-0.04c-0.927-0.098-2.156-0.147-3.651-0.147c-0.417,0-0.807,0.014-1.169,0.027
		c-0.115,0.004-0.228,0.008-0.336,0.012c-0.096-2.331-0.233-4.688-0.364-6.972l-0.029-0.499h-0.5c-1.046,0-2.139,0.092-3.26,0.194
		l-0.488,0.044l0.006,0.49c0.094,7.183,0.417,13.635,0.961,19.177l0.034,0.347l0.332,0.106c2.247,0.716,5.092,1.079,8.458,1.079
		c4.019,0,6.12-0.171,7.024-0.573l0.268-0.119l0.041-0.291c0.639-4.532,0.964-11.461,0.964-20.596v-0.477l-0.474-0.05
		C131.135,20.52,129.454,20.355,127.697,20.189z"/>
	<path fill="#A03F1A" d="M142.443,22.472c0.926-1.876,1.694-3.536,2.398-5.175l0.169-0.395l-0.351-0.247
		c-0.943-0.665-1.771-1.126-2.606-1.451l-0.421-0.164l-0.229,0.389c-2.669,4.546-5.113,9.174-7.262,13.757l-0.154,0.326l0.248,0.262
		c0.921,0.975,1.918,1.574,3.047,1.831l0.388,0.088l0.192-0.347c0.893-1.604,1.753-3.272,2.626-4.97
		c2.66,0.257,5.504,0.517,8.592,0.704c-0.126,3.708-0.214,7.198-0.263,10.389c-0.669,0.013-1.365,0.048-2.089,0.084l-0.652,0.033
		v0.504c0,0.675,0,1.516,0.099,2.408l0.043,0.385l0.38,0.076c0.69,0.138,1.576,0.202,2.789,0.202c1.078,0,1.998-0.099,2.813-0.304
		l0.371-0.093l0.029-0.381c0.383-5.077,0.577-10.624,0.577-16.487V23.42l-0.476-0.049C149.23,23.015,145.791,22.737,142.443,22.472z
		"/>
	<path fill="#A03F1A" d="M185.891,7.185c0.428-0.947,0.811-1.712,1.087-2.265l0.215-0.431l-0.409-0.255
		c-0.923-0.576-2.067-0.947-3.496-1.133l-0.348-0.046l-0.178,0.303c-2.74,4.68-4.559,8.577-5.561,11.916l-0.117,0.387l0.343,0.214
		c0.926,0.579,2.031,0.949,3.382,1.134l0.384,0.052l1.021-2.148c0.611-1.28,1.185-2.487,1.696-3.606
		c4.365,0.98,8.792,1.476,13.167,1.476h0.429l0.089-0.42c0.241-1.143,0.402-2.091,0.402-3.004V8.911l-0.443-0.074
		C193.132,8.099,189.4,7.57,185.891,7.185z"/>
	<path fill="#A03F1A" d="M174.929,25.443l0.228-0.259c0.379-0.432,0.731-0.978,1.028-1.59c0.389-0.519,0.632-1.087,0.847-1.623
		l0.165-0.412l-0.376-0.235c-1.901-1.187-3.689-2.241-5.314-3.132l-0.343-0.188c0.028,0.003,0.055,0.007,0.083,0.01l0.379,0.044
		l0.162-0.345c0.501-1.062,0.824-2.035,0.989-2.973l0.082-0.462l-0.45-0.136c-2.033-0.616-3.59-1.077-5.109-1.403l-0.39-0.084
		l-0.188,0.353c-0.425,0.797-0.732,1.716-0.996,2.979l-0.088,0.419l0.391,0.174c1.656,0.735,3.329,1.2,5.113,1.421l-0.274,0.294
		c-0.862,0.918-1.517,2.015-2.005,3.354l-0.127,0.35l0.285,0.238c1.752,1.459,3.577,2.475,5.58,3.104L174.929,25.443z"/>
	<path fill="#A03F1A" d="M197.652,22.704l-0.441-0.064c-5.341-0.782-9.456-1.264-13.339-1.563l-0.446-0.034l-0.109,0.434
		c-0.198,0.793-0.239,1.385-0.239,1.743v2.103l0.426,0.085c2.955,0.591,6.061,1.086,9.482,1.508
		c-0.002,5.818-0.05,11.66-0.107,18.095c-0.89,0.003-1.804,0.018-2.755,0.113l-0.341,0.034l-0.109,0.325
		c-0.139,0.416-0.139,0.917-0.139,1.448c0,0.654,0.139,1.292,0.39,1.796l0.128,0.258l0.287,0.032c1.027,0.114,2.211,0.17,3.621,0.17
		c0.971,0,1.992-0.057,2.98-0.112l0.428-0.024l0.065-0.424c0.341-2.216,0.507-5.283,0.507-9.377c0-4.099-0.086-9.064-0.278-16.101
		L197.652,22.704z"/>
	<path fill="#A03F1A" d="M193.093,18.294l0.134-0.328c0.39-0.944,0.638-1.938,0.761-3.037l0.049-0.44l-0.424-0.126
		c-1.967-0.584-4.01-1.045-6.245-1.407l-0.395-0.064l-0.17,0.363c-0.444,0.952-0.715,1.954-0.825,3.065l-0.042,0.413l0.392,0.139
		c2.625,0.93,4.842,1.422,6.411,1.422C192.739,18.294,193.093,18.294,193.093,18.294z"/>
	<path fill="#A03F1A" d="M165.415,27.02l-0.394-0.088c-0.921-0.203-1.969-0.359-3.415,0.004l-0.323,0.081l-0.067,0.325
		c-0.321,1.547-0.457,4.609-0.457,10.238c0,4.947,0.332,8.792,1.016,11.753l0.095,0.411h0.421c0.23,0,0.471,0.012,0.724,0.025
		c0.3,0.015,0.614,0.031,0.945,0.031c0.667,0,1.206-0.062,1.648-0.187l0.385-0.11v-0.4c0-7.092-0.182-14.184-0.557-21.679
		L165.415,27.02z"/>
	<path fill="#A03F1A" d="M162.544,17.654l0.203-0.345c1.084-1.842,2.248-3.855,3.452-6.137c3.238,0.552,6.586,0.832,9.952,0.832
		h0.434l0.085-0.426c0.211-1.056,0.4-2.079,0.4-2.998V8.125l-0.451-0.068c-2.5-0.378-5.236-0.703-8.342-0.992
		c0.078-0.164,0.155-0.331,0.235-0.5c0.208-0.445,0.423-0.905,0.654-1.366l0.209-0.418l-0.389-0.259
		c-0.967-0.644-2.121-1.174-3.529-1.622l-0.422-0.134l-0.207,0.391c-3.102,5.866-5.074,9.812-6.03,12.064l-0.134,0.316l0.234,0.251
		c0.756,0.814,1.822,1.392,3.26,1.766L162.544,17.654z"/>
	<path fill="#A03F1A" d="M175.618,28.424l-0.493-0.023l-0.058,0.491c-0.114,0.976-0.114,1.992-0.114,3.067v0.431l0.422,0.087
		c2.349,0.49,5.092,0.836,8.597,1.086c-0.287,2.832-0.373,5.048-0.389,6.548c-2.943-0.016-6.023-0.167-9.388-0.458
		c-0.029-0.401-0.054-0.813-0.067-1.224c0.391,0.016,0.823,0.016,1.298,0.016c1.938,0,3.14-0.072,3.896-0.235l0.369-0.079
		l0.046-0.374c0.056-0.45,0.115-0.976,0.115-1.512c0-0.593-0.113-1.182-0.235-1.729l-0.087-0.387l-0.395-0.026
		c-1.114-0.074-2.306-0.112-3.543-0.112h-1.684c-0.037-0.464-0.068-0.929-0.1-1.399c-0.041-0.607-0.083-1.22-0.137-1.846
		l-0.041-0.484h-0.486c-1.084,0-2.098,0.101-3.17,0.208l-0.651,0.065l0.006,0.486c0.054,4.333,0.261,8.301,0.615,11.792l0.035,0.352
		l0.339,0.102c2.265,0.68,5.089,1.024,8.391,1.024c4.858,0,7.524-0.125,8.644-0.405l0.314-0.079l0.073-0.316
		c0.684-2.96,1.016-7.388,1.016-13.534v-0.47l-0.466-0.056C184.576,28.985,180.313,28.647,175.618,28.424z"/>
	<path fill="#A03F1A" d="M237.618,40.867c-0.134-4.591-0.632-9.663-1.479-15.075l-0.076-0.479l-0.483,0.032
		c-4.084,0.272-8.252,0.64-12.403,1.096c0.302-1.964,0.604-3.935,0.893-5.984l0.077-0.546l-0.548-0.055
		c-1.219-0.122-2.189-0.178-3.05-0.178l-0.665,0.007l-0.086,0.417c-0.43,2.08-0.85,4.335-1.281,6.882
		c-2.262,0.308-4.588,0.628-6.841,0.98l-0.389,0.061l-0.054,0.39c-0.068,0.498-0.064,0.976,0.012,1.463l0.301,1.924l0.461-0.008
		c1.754-0.029,3.598-0.129,5.757-0.312c-0.743,4.687-1.312,9.382-1.692,13.967l-0.033,0.392l0.366,0.144
		c0.911,0.36,1.909,0.543,2.965,0.543l0.676-0.014l0.067-0.438c0.772-5.03,1.549-10.015,2.334-14.955
		c3.156-0.238,6.393-0.61,9.638-1.104c0.46,2.97,0.831,5.598,1.138,7.83c-0.955,0.162-1.981,0.371-3.056,0.622l-0.343,0.08
		l-0.059,0.347c-0.062,0.366-0.054,0.761,0.027,1.283c0.069,0.433,0.202,0.931,0.375,1.404l0.129,0.351l0.373-0.004
		c2.26-0.023,4.386-0.195,6.499-0.525l0.461-0.072L237.618,40.867z"/>
	<path fill="#A03F1A" d="M205.034,18.096l0.489-0.038c9.155-0.722,18.802-1.871,28.676-3.414l0.451-0.071l-0.003-0.456
		c-0.007-1.119-0.085-2.133-0.236-3.1l-0.076-0.482l-0.487,0.036c-9.999,0.746-19.355,1.812-28.604,3.258l-0.409,0.064l-0.037,0.412
		c-0.088,0.974-0.035,2.055,0.16,3.307L205.034,18.096z"/>
	<path fill="#A03F1A" d="M211.449,20.221l-0.45-0.115c-0.997-0.254-2.015-0.451-3.111-0.601l-0.465-0.064l-0.119,0.454
		c-1.481,5.644-2.719,11.767-3.679,18.198l-0.054,0.355l0.31,0.181c0.922,0.536,1.975,0.848,3.132,0.928l0.426,0.029l0.119-0.41
		c1.835-6.327,3.126-12.55,3.835-18.494L211.449,20.221z"/>
</g>
</svg>
