<svg version="1.1" id="weibo_icon" xmlns="http://www.w3.org/2000/svg" xmlns:xlink="http://www.w3.org/1999/xlink" x="0px" y="0px" width="48px" height="48px" viewBox="51.5 0 47.125 48" enable-background="new 51.5 0 47.125 48" xml:space="preserve"> <g id="Label"> </g> <g id="Grid" display="none"> <g display="inline"> <line fill="none" stroke="#00E5FF" stroke-width="0.1" stroke-miterlimit="10" x1="42" y1="-1208" x2="42" y2="2344"/> </g> </g> <g> <g> <path d="M85.476,24.169c-0.274-0.135-0.574-0.222-0.867-0.314c-1.204-0.377-1.27-0.506-0.836-1.705 c1.047-2.892-0.49-4.917-3.544-4.757c-1.697,0.089-3.27,0.528-4.784,1.266c-0.371,0.181-0.8,0.45-1.215,0.126 c-0.431-0.336-0.195-0.79-0.115-1.202c0.029-0.15,0.096-0.293,0.129-0.443c0.538-2.451-0.928-4.237-3.418-4.161 c-2.008,0.062-3.771,0.863-5.435,1.89c-3.647,2.251-6.333,5.441-8.64,8.986c-3.019,4.639-1.951,9.827,2.678,12.883 c3.621,2.391,7.693,3.177,11.275,3.275c5.68-0.032,10.303-1.25,14.291-4.415c1.491-1.183,2.749-2.555,3.443-4.375 C89.698,27.92,88.404,25.614,85.476,24.169z M80.305,33.758c-1.995,2.115-4.488,3.345-7.323,3.812 c-3.221,0.531-6.379,0.17-9.422-1.04c-1.01-0.401-1.921-0.973-2.715-1.72c-2.646-2.487-2.747-5.813-0.214-8.402 c2.291-2.341,5.183-3.465,8.357-3.958c0.82-0.127,1.647-0.23,2.485-0.178c2.48,0.063,4.904,0.398,7.146,1.561 C82.856,26.031,83.584,30.282,80.305,33.758z"/> <path d="M94.578,16.842c-0.739-4.343-4.326-7.767-8.792-8.444c-1.545-0.234-3.072-0.261-4.559,0.277 c-0.766,0.277-1.238,0.837-1.141,1.694c0.091,0.799,0.608,1.281,1.386,1.392c0.347,0.049,0.728-0.07,1.084-0.153
			c3.974-0.924,8.16,1.792,8.891,5.782c0.252,1.378-0.115,2.683-0.482,3.994c-0.27,0.964,0.126,1.707,0.986,1.993
			c0.865,0.287,1.598-0.076,1.978-1.007c0.505-1.239,0.77-2.529,0.784-3.874C94.67,17.945,94.67,17.386,94.578,16.842z"/>
		<path d="M87.311,21.024c0.566,0.13,0.964-0.165,1.166-0.671c0.194-0.486,0.288-1.005,0.256-1.461
			c0.032-3.362-3.038-5.684-6.192-4.772c-0.625,0.181-0.982,0.546-0.875,1.197c0.103,0.631,0.503,0.937,1.182,0.889
			c3.085-0.221,3.76,0.469,3.621,3.669C86.442,20.488,86.727,20.889,87.311,21.024z"/>
	</g>
	<path d="M69.13,36.007c-0.642-0.046-1.287-0.027-1.924-0.187c-3.097-0.778-4.46-3.016-3.531-6.058
		c1.641-5.371,7.737-5.486,10.506-3.115c2.415,2.067,2.058,6.09-0.697,8.111C72.188,35.708,70.72,36.071,69.13,36.007z
		 M67.425,33.908c1.115,0.013,2.234-1.058,2.258-2.161c0.021-0.967-0.846-1.839-1.825-1.835c-1.243,0.004-2.407,1.011-2.429,2.099
		C65.41,33.022,66.329,33.895,67.425,33.908z M71.811,29.846c-0.065-0.499-0.322-0.797-0.848-0.778
		c-0.48,0.017-0.738,0.3-0.74,0.768c-0.002,0.469,0.257,0.757,0.732,0.78C71.475,30.643,71.742,30.347,71.811,29.846z"/>
</g>
</svg>
