<?xml version="1.0" encoding="utf-8"?>
<!-- Generator: Adobe Illustrator 17.0.0, SVG Export Plug-In . SVG Version: 6.00 Build 0)  -->
<!DOCTYPE svg PUBLIC "-//W3C//DTD SVG 1.1//EN" "http://www.w3.org/Graphics/SVG/1.1/DTD/svg11.dtd">
<svg version="1.1" id="图层_1" xmlns="http://www.w3.org/2000/svg" xmlns:xlink="http://www.w3.org/1999/xlink" x="0px" y="0px"
	 width="100px" height="100.003px" viewBox="0 0 100 100.003" enable-background="new 0 0 100 100.003" xml:space="preserve">
<circle fill="#40D700" cx="49.75" cy="50" r="48"/>
<path fill="#FFFFFF" d="M80.707,81.155c-2.203-1.096-4.107-1.963-5.928-2.976c-1.24-0.689-2.372-0.745-3.782-0.461
	c-9.401,1.888-17.766,0.046-24.496-7.215c-1.192-1.286-2.165-2.748-2.817-4.375c-0.37-0.923-0.89-1.167-1.848-1.098
	c-3.792,0.274-7.551,0.002-11.205-1.115c-0.783-0.24-1.343,0.056-1.965,0.368c-2.583,1.288-5.17,2.568-8.117,4.032
	c0.61-2.13,0.99-3.945,1.656-5.644c0.626-1.597,0.313-2.466-1.1-3.55c-5.939-4.552-9.276-10.508-8.727-18.18
	c0.482-6.722,4.03-11.725,9.284-15.67c11.088-8.323,28.698-7.091,38.316,2.7c2.909,2.963,5.001,6.413,5.772,10.539
	c0.061,0.324,0.226,1.656,0.226,1.656s0.885,0.115,1.907,0.221c6.511,0.681,12.101,3.339,16.15,8.585
	c5.951,7.71,4.492,18.021-3.4,24.098c-1.518,1.169-1.89,2.182-1.186,3.876C79.953,78.161,80.218,79.48,80.707,81.155z
	 M45.325,34.311c-0.125,1.9,1.395,3.625,3.316,3.765c1.892,0.138,3.652-1.387,3.798-3.287c0.152-1.988-1.414-3.759-3.406-3.851
	C47.102,30.853,45.454,32.348,45.325,34.311z M33.672,34.442c-0.025-1.959-1.6-3.51-3.548-3.5c-1.94,0.01-3.5,1.583-3.508,3.535
	c-0.008,2.03,1.639,3.661,3.629,3.598C32.171,38.013,33.698,36.395,33.672,34.442z M58.019,50.503
	c-1.591,0.052-2.827,1.389-2.758,2.978c0.067,1.495,1.372,2.721,2.865,2.687c1.572-0.035,2.825-1.391,2.746-2.971
	C60.792,51.668,59.507,50.455,58.019,50.503z M72.822,50.5c-1.541-0.042-2.919,1.299-2.915,2.834
	c0.004,1.501,1.242,2.788,2.729,2.832c1.503,0.044,2.809-1.153,2.886-2.652C75.605,51.908,74.384,50.542,72.822,50.5z"/>
</svg>
