<?xml version="1.0" encoding="utf-8"?>
<!-- Generator: Adobe Illustrator 17.0.0, SVG Export Plug-In . SVG Version: 6.00 Build 0)  -->
<!DOCTYPE svg PUBLIC "-//W3C//DTD SVG 1.1//EN" "http://www.w3.org/Graphics/SVG/1.1/DTD/svg11.dtd">
<svg version="1.1" id="weichat_icon" xmlns="http://www.w3.org/2000/svg" xmlns:xlink="http://www.w3.org/1999/xlink" x="0px"
	 y="0px" width="47.125px" height="48px" viewBox="0 0 47.125 48" enable-background="new 0 0 47.125 48" xml:space="preserve">
<path fill="#D15851" d="M-257.438,104.5c-9.667,0-19.333,0-29,0c-1.616-1.822-3.971-1.398-5.968-1.741
	C-357.543,91.558-403.845,31.85-398.251-33.85c5.701-66.959,60.823-117.651,127.932-117.651
	c60.435,0,112.141,41.636,125.126,100.622c0.908,4.125,0.622,8.529,2.755,12.379c0,3,0,6,0,9c-2.383-0.339-4.334-1.633-6.29-2.888
	c-18.322-11.75-36.635-23.512-54.951-35.271c-10.336-10.577-19.859-21.941-30.846-31.888c-1.934-0.958-4.008-0.922-6.086-0.862
	c-21.485,0.038-42.971,0.058-64.456,0.121c-13.065,0.038-20.635,6.835-20.708,19.672c-0.218,38.476-0.188,76.954-0.006,115.43
	c0.052,11.054,6.281,17.463,17.233,18.987c0.626,0.969,1.087,2.114,1.903,2.881c12.848,12.069,25.781,24.049,38.601,36.148
	C-264.219,96.437-259.576,99.345-257.438,104.5z"/>
<path fill="#A84640" d="M-203.678-67.659c18.316,11.759,36.629,23.521,54.951,35.271c1.956,1.254,3.907,2.549,6.29,2.888
	c0,7.333,0,14.667,0,22c-1.45,0.594-0.966,1.959-1.152,3.017c-9.639,54.818-47.244,94.658-100.444,106.513
	c-3.797,0.846-7.865,0.456-11.404,2.47c-0.667,0-1.333,0-2,0c-2.138-5.155-6.782-8.063-10.604-11.671
	c-12.82-12.099-25.753-24.078-38.601-36.148c-0.816-0.767-1.277-1.912-1.901-2.881c12.227,0,24.452,0,37.186,0
	c-2.994-5.851-6.633-8.331-12.649-7.856c-6.789,0.537-13.653,0.131-20.485,0.122c-9.861-0.013-13.779-3.743-13.8-13.466
	c-0.055-25.493,0.038-50.986-0.086-76.479c-0.016-3.384,0.786-4.588,4.4-4.573c32.824,0.133,65.649,0.136,98.472-0.003
	c3.684-0.016,4.382,1.31,4.333,4.613c-0.169,11.494-0.065,22.993-0.065,34.49c0,14.496,0.04,28.992-0.021,43.488
	c-0.027,6.41-2.799,10.855-8.163,11.404c-5.156,0.528-7.107,4.031-9.899,7.432c16.677,2.978,25.86-4.551,25.863-20.783
	c0.002-12.83,0-25.66,0-38.489c0-16.995-0.101-33.992,0.083-50.985c0.038-3.511-0.915-4.744-4.432-4.401
	c-2.971,0.29-5.995,0.137-8.991,0.043c-12.974-0.408-23.253-10.835-23.512-23.794c-0.1-4.991-0.2-9.982-0.299-14.973
	c2.078-0.06,4.152-0.096,6.085,0.863c0.008,4.979-0.165,9.966,0.063,14.935c0.426,9.302,7.551,16.554,16.869,17.073
	C-212.972-67.281-208.318-67.6-203.678-67.659z M-275.364,40.353c8.424,9.665,16.023,18.384,23.624,27.102
	c1.735,1.99,2.55,0.122,3.453-0.898c3.751-4.241,7.455-8.522,11.173-12.792c3.638-4.179,7.271-8.361,11.662-13.411
	c-3.62,0-5.942-0.252-8.188,0.055c-4.09,0.56-5.02-1.169-4.883-4.988c0.28-7.82-0.03-15.66,0.143-23.486
	c0.063-2.844-0.843-3.739-3.658-3.636c-5.324,0.194-10.671,0.257-15.987-0.017c-3.415-0.176-4.628,0.735-4.495,4.347
	c0.282,7.653-0.091,15.33,0.164,22.985c0.118,3.555-0.583,5.336-4.569,4.799C-269.3,40.092-271.752,40.353-275.364,40.353z"/>
<path fill="#FEFDFD" d="M-142.438-38.5c-2.133-3.85-1.847-8.254-2.755-12.379c-12.986-58.986-64.692-100.622-125.126-100.622
	c-67.109,0-122.231,50.692-127.932,117.651c-5.594,65.701,40.708,125.408,105.846,136.609c1.996,0.343,4.352-0.081,5.968,1.741
	c-37.667,0-75.333,0-113,0c0-84.333,0.027-168.667-0.096-253c-0.005-3.424,0.672-4.101,4.096-4.096c83,0.123,166,0.123,249,0
	c3.424-0.005,4.114,0.67,4.099,4.096C-142.498-111.834-142.438-75.167-142.438-38.5z"/>
<path fill="#FEFDFD" d="M-255.438,104.5c3.538-2.014,7.607-1.624,11.404-2.47c53.2-11.855,90.806-51.695,100.444-106.513
	c0.186-1.058-0.298-2.423,1.152-3.017c0,36.167-0.046,72.333,0.084,108.5c0.011,2.984-0.601,3.595-3.585,3.584
	C-182.437,104.455-218.938,104.5-255.438,104.5z"/>
<path fill="#A84640" d="M-291.643-74.429c0-0.499-0.158-1.067,0.025-1.487c1.37-3.14-3.701-9.327,4.639-9.22
	c10.121,0.131,14.126,2.782,14.408,10.319c0.251,6.717-3.459,10.982-9.857,11.329C-291.643-62.987-291.643-62.987-291.643-74.429z
	 M-286.885-74.425c1.767,2.014-2.444,6.636,3.266,6.665c4.126,0.022,6.021-2.485,5.932-6.406c-0.085-3.746-1.603-6.399-5.904-6.453
	C-289.065-80.688-285.36-76.404-286.885-74.425z"/>
<path fill="#A84640" d="M-311.454-74.457c-0.003-0.5-0.003-0.999-0.003-1.499c0-9.556,1.964-11.034,11.602-8.812
	c3.858,0.89,5.634,3.343,5.407,7.201c-0.232,3.935-2.454,6.447-6.362,6.152c-4.594-0.347-6.389,1.176-5.635,5.732
	c0.297,1.79-0.777,2.181-2.379,2.236c-1.893,0.065-2.74-0.508-2.656-2.52C-311.363-68.792-311.451-71.627-311.454-74.457z
	 M-304.596-81.026c-1.032-0.148-1.828,0.691-1.881,2.88c-0.058,2.417,0.804,3.335,3.15,3.049c1.838-0.224,3.833-0.284,3.922-2.797
	C-299.302-80.806-301.529-80.751-304.596-81.026z"/>
<path fill="#A84640" d="M-269.637-74.505c-0.007-10.931-0.006-10.952,11.108-10.545c1.644,0.06,4.008-0.731,3.924,2.309
	c-0.086,3.08-2.513,1.849-4.089,2.096c-0.811,0.127-1.665-0.048-2.486,0.04c-1.481,0.159-3.562-0.706-3.61,2.059
	c-0.049,2.766,2.001,2.037,3.517,2.152c0.991,0.075,1.992,0.048,2.988,0.02c1.327-0.037,2.251,0.339,2.361,1.87
	c0.134,1.864-0.984,2.406-2.48,2.167c-5.143-0.82-7.35,1.147-6.499,6.41c0.322,1.995-0.875,2.474-2.701,2.479
	c-2.004,0.006-2.033-1.185-2.028-2.589C-269.622-68.859-269.63-71.682-269.637-74.505z"/>
<path fill="#FEFDFD" d="M-286.885-74.425c1.525-1.978-2.18-6.263,3.293-6.194c4.301,0.054,5.819,2.707,5.904,6.453
	c0.089,3.921-1.806,6.428-5.932,6.406C-289.33-67.79-285.118-72.411-286.885-74.425z"/>
<path fill="#FEFDFD" d="M-304.596-81.026c3.067,0.276,5.295,0.221,5.192,3.132c-0.089,2.514-2.084,2.573-3.922,2.797
	c-2.347,0.286-3.209-0.632-3.15-3.049C-306.425-80.335-305.628-81.174-304.596-81.026z"/>
<g id="Label">
</g>
<g id="Grid" display="none">
	<g display="inline">
		<line fill="none" stroke="#00E5FF" stroke-width="0.1" stroke-miterlimit="10" x1="42" y1="-1208" x2="42" y2="2344"/>
	</g>
</g>
<path d="M89.996,39.663c-1.055-0.525-1.967-0.94-2.839-1.425c-0.594-0.33-1.136-0.357-1.811-0.221
	c-4.502,0.904-8.508,0.022-11.731-3.455c-0.571-0.616-1.037-1.316-1.349-2.095c-0.177-0.442-0.426-0.559-0.885-0.526
	c-1.816,0.131-3.616,0.001-5.366-0.534c-0.375-0.115-0.643,0.027-0.941,0.176c-1.237,0.617-2.476,1.23-3.887,1.931
	c0.292-1.02,0.474-1.889,0.793-2.703c0.3-0.765,0.15-1.181-0.527-1.7c-2.844-2.18-4.442-5.032-4.179-8.706
	c0.231-3.219,1.93-5.615,4.446-7.504c5.31-3.986,13.743-3.396,18.349,1.293c1.393,1.419,2.395,3.071,2.764,5.047
	c0.029,0.155,0.108,0.793,0.108,0.793s0.424,0.055,0.913,0.106c3.118,0.326,5.795,1.599,7.734,4.111
	c2.85,3.692,2.151,8.63-1.628,11.54c-0.727,0.56-0.905,1.045-0.568,1.856C89.635,38.229,89.762,38.861,89.996,39.663z M73.052,17.23
	c-0.06,0.91,0.668,1.736,1.588,1.803c0.906,0.066,1.749-0.664,1.819-1.574c0.073-0.952-0.677-1.8-1.631-1.844
	C73.903,15.574,73.114,16.29,73.052,17.23z M67.472,17.293c-0.012-0.938-0.766-1.681-1.699-1.676
	c-0.929,0.005-1.676,0.758-1.68,1.693c-0.004,0.972,0.785,1.753,1.738,1.723C66.753,19.003,67.484,18.228,67.472,17.293z
	 M79.131,24.984c-0.762,0.025-1.354,0.665-1.321,1.426c0.032,0.716,0.657,1.303,1.372,1.287c0.753-0.017,1.353-0.666,1.315-1.423
	C80.459,25.542,79.844,24.961,79.131,24.984z M86.22,24.983c-0.738-0.02-1.398,0.622-1.396,1.357
	c0.002,0.719,0.595,1.335,1.307,1.356c0.72,0.021,1.345-0.552,1.382-1.27C87.553,25.657,86.968,25.003,86.22,24.983z"/>
<g>
	<g>
		<path d="M35.143,24.169c-0.274-0.135-0.574-0.222-0.867-0.314c-1.204-0.377-1.27-0.506-0.836-1.705
			c1.047-2.892-0.49-4.917-3.544-4.757c-1.697,0.089-3.27,0.528-4.784,1.266c-0.371,0.181-0.8,0.45-1.215,0.126
			c-0.431-0.336-0.195-0.79-0.115-1.202c0.029-0.15,0.096-0.293,0.129-0.443c0.538-2.451-0.928-4.237-3.418-4.161
			c-2.008,0.062-3.771,0.863-5.435,1.89c-3.647,2.251-6.333,5.441-8.64,8.986c-3.019,4.639-1.951,9.827,2.678,12.883
			c3.621,2.391,7.693,3.177,11.275,3.275c5.68-0.032,10.303-1.25,14.291-4.415c1.491-1.183,2.749-2.555,3.443-4.375
			C39.365,27.92,38.071,25.614,35.143,24.169z M29.972,33.758c-1.995,2.115-4.488,3.345-7.323,3.812
			c-3.221,0.531-6.379,0.17-9.422-1.04c-1.01-0.401-1.921-0.973-2.715-1.72c-2.646-2.487-2.747-5.813-0.214-8.402
			c2.291-2.341,5.183-3.465,8.357-3.958c0.82-0.127,1.647-0.23,2.485-0.178c2.48,0.063,4.904,0.398,7.146,1.561
			C32.523,26.031,33.251,30.282,29.972,33.758z"/>
		<path d="M44.245,16.842c-0.739-4.343-4.326-7.767-8.792-8.444c-1.545-0.234-3.072-0.261-4.559,0.277
			c-0.766,0.277-1.238,0.837-1.141,1.694c0.091,0.799,0.608,1.281,1.386,1.392c0.347,0.049,0.728-0.07,1.084-0.153
			c3.974-0.924,8.16,1.792,8.891,5.782c0.252,1.378-0.115,2.683-0.482,3.994c-0.27,0.964,0.126,1.707,0.986,1.993
			c0.865,0.287,1.598-0.076,1.978-1.007c0.505-1.239,0.77-2.529,0.784-3.874C44.337,17.945,44.337,17.386,44.245,16.842z"/>
		<path d="M36.978,21.024c0.566,0.13,0.964-0.165,1.166-0.671c0.194-0.486,0.288-1.005,0.256-1.461
			c0.032-3.362-3.038-5.684-6.192-4.772c-0.625,0.181-0.982,0.546-0.875,1.197c0.103,0.631,0.503,0.937,1.182,0.889
			c3.085-0.221,3.76,0.469,3.621,3.669C36.109,20.488,36.394,20.889,36.978,21.024z"/>
	</g>
	<path d="M18.797,36.007c-0.642-0.046-1.287-0.027-1.924-0.187c-3.097-0.778-4.46-3.016-3.531-6.058
		c1.641-5.371,7.737-5.486,10.506-3.115c2.415,2.067,2.058,6.09-0.697,8.111C21.855,35.708,20.387,36.071,18.797,36.007z
		 M17.092,33.908c1.115,0.013,2.234-1.058,2.258-2.161c0.021-0.967-0.846-1.839-1.825-1.835c-1.243,0.004-2.407,1.011-2.429,2.099
		C15.077,33.022,15.996,33.895,17.092,33.908z M21.478,29.846c-0.065-0.499-0.322-0.797-0.848-0.778
		c-0.48,0.017-0.738,0.3-0.74,0.768c-0.002,0.469,0.257,0.757,0.732,0.78C21.142,30.643,21.409,30.347,21.478,29.846z"/>
</g>
<path d="M-42.793,13.533c0,7.64,0,15.25,0,22.852c0.49,2.232,2.473,3.904,4.852,3.904h31.217c2.379,0,4.362-1.673,4.852-3.904
	c0-7.623,0-15.234,0-22.852c-0.49-2.232-2.473-3.904-4.852-3.904c-10.41,0-20.809,0-31.217,0
	C-40.32,9.629-42.303,11.302-42.793,13.533z M-9.373,10.696c-4.348,4.427-8.75,8.91-13.103,13.343
	c-4.26-4.344-8.654-8.824-13.085-13.343C-26.777,10.696-18.013,10.696-9.373,10.696z M-7.966,15.812c0,5.961,0,12.008,0,18.173
	c-3.532-2.521-7.029-5.017-10.484-7.483C-14.93,22.913-11.442,19.357-7.966,15.812z M-36.762,15.666
	c3.226,3.295,6.512,6.653,9.824,10.036c-3.192,2.731-6.466,5.532-9.824,8.405C-36.762,27.849-36.762,21.697-36.762,15.666z
	 M-36.798,35.689c0.003-0.152,0.161-0.333,0.293-0.446c3.415-2.933,6.837-5.859,10.258-8.784c0.045-0.038,0.106-0.058,0.183-0.099
	c1.244,1.286,2.489,2.573,3.773,3.899c1.039-1.08,2.007-2.087,2.988-3.107c2.368,1.689,4.687,3.343,7.006,4.998
	c1.321,0.942,2.634,1.895,3.965,2.822c0.304,0.212,0.441,0.434,0.433,0.82c-0.025,1.156-0.009,2.313-0.009,3.528
	c-9.669,0-19.253,0-28.904,0C-36.811,38.082-36.822,36.885-36.798,35.689z"/>
<g>
	<g>
		<path fill="#FEFDFD" d="M129.004,13.368h3.054l-5.802-6.406v3.659C126.257,12.135,127.489,13.368,129.004,13.368z"/>
		<g>
			<path fill="#FEFDFD" d="M113.171,10.845h-0.359v2.541h0.352c0.3,0,0.514-0.033,0.641-0.1c0.127-0.067,0.226-0.183,0.298-0.349
				c0.072-0.166,0.108-0.435,0.108-0.807c0-0.493-0.08-0.83-0.241-1.012C113.81,10.936,113.543,10.845,113.171,10.845z"/>
			<path fill="#FEFDFD" d="M129.004,14.703c-2.252,0-4.083-1.832-4.083-4.083V6.961h-16.525c-2.709,0-4.912,2.204-4.912,4.912
				v24.157c0,2.709,2.204,4.912,4.912,4.912h9.178l-1.751-2.069h-7.427c-1.157,0-2.153-0.696-2.596-1.69
				c-0.11-0.156-0.176-0.345-0.181-0.55c-0.042-0.194-0.066-0.396-0.066-0.603l0.063-17.681c0-0.512,0.446-0.958,0.996-0.958h22.394
				c0.55,0,0.996,0.446,0.996,0.996l-0.014,17.643c0,1.568-1.275,2.843-2.843,2.843h-0.874l-1.751,2.069h2.625
				c2.709,0,4.912-2.204,4.912-4.912V14.703H129.004z M110.181,12.32c-0.282,0.264-0.713,0.397-1.293,0.397h-0.787v1.726h-1.444
				V9.792h2.389c0.52,0,0.91,0.124,1.169,0.371c0.259,0.247,0.389,0.6,0.389,1.056C110.604,11.689,110.463,12.056,110.181,12.32z
				 M115.485,13.258c-0.113,0.274-0.27,0.503-0.471,0.688c-0.201,0.185-0.417,0.308-0.647,0.37
				c-0.315,0.085-0.601,0.127-0.857,0.127h-2.135V9.792h2.135c0.421,0,0.761,0.057,1.02,0.171c0.259,0.114,0.473,0.278,0.642,0.492
				c0.169,0.214,0.292,0.462,0.368,0.746c0.076,0.283,0.114,0.584,0.114,0.901C115.655,12.598,115.599,12.984,115.485,13.258z
				 M119.97,10.791h-2.11v0.812h1.802v0.939h-1.802v1.9h-1.444V9.792h3.553V10.791z"/>
			<path fill="#FEFDFD" d="M108.51,10.737h-0.409v1.037h0.352c0.277,0,0.472-0.048,0.584-0.144c0.112-0.096,0.168-0.219,0.168-0.37
				c0-0.146-0.049-0.27-0.146-0.371C108.962,10.788,108.779,10.737,108.51,10.737z"/>
		</g>
	</g>
	<path fill="#FEFDFD" d="M124.831,35.352v-8.579c0-0.917-0.743-1.66-1.66-1.66h-4.33c-0.917,0-1.66,0.743-1.66,1.66v8.579h-2.97
		l6.794,8.03l6.794-8.03H124.831z"/>
</g>
</svg>
