<?xml version="1.0" encoding="utf-8"?>
<!-- Generator: Adobe Illustrator 17.0.0, SVG Export Plug-In . SVG Version: 6.00 Build 0)  -->
<!DOCTYPE svg PUBLIC "-//W3C//DTD SVG 1.1//EN" "http://www.w3.org/Graphics/SVG/1.1/DTD/svg11.dtd">
<svg version="1.1" id="图层_1" xmlns="http://www.w3.org/2000/svg" xmlns:xlink="http://www.w3.org/1999/xlink" x="0px" y="0px"
	 width="100px" height="100.003px" viewBox="0 0 100 100.003" enable-background="new 0 0 100 100.003" xml:space="preserve">
<circle fill="#2291F8" cx="50" cy="49.251" r="48"/>
<g>
	<polygon fill="#FFFFFF" points="25.919,65.518 19.563,61.939 36.921,32.051 43.119,35.583 	"/>
	<polygon fill="#FFFFFF" points="18.328,64.465 15.215,76.354 24.443,67.419 	"/>
	<path fill="#FFFFFF" d="M38.259,29.578l2.369-4.144c0.509-0.891,1.605-1.222,2.448-0.74l3.397,1.942
		c0.843,0.482,1.113,1.594,0.604,2.485l-2.369,4.144L38.259,29.578z"/>
	<path fill="#FFFFFF" d="M19.37,31.016"/>
	<path fill="#FFFFFF" d="M72.019,60.584L45.54,18.517c-0.52-0.884-0.263-2,0.574-2.492l3.373-1.983
		c0.837-0.492,1.937-0.174,2.457,0.711L78.423,56.82L72.019,60.584z"/>
	<path fill="#FFFFFF" d="M72.992,62.419l5.465-3.13c0,0,1.253,0.188,2.22,0.868c1.244,0.874,2.439,2.802,2.857,3.917
		c1.164,3.105,1.296,9.067-0.161,11.608c-0.868-3.037-3.285-4.431-3.285-4.431s-4.032-2.53-4.989-3.765
		C74.259,66.402,72.992,62.419,72.992,62.419z"/>
	<polygon fill="#FFFFFF" points="25.998,44.818 11.263,44.818 11.263,52.627 21.463,52.627 	"/>
	<g>
		<polygon fill="#FFFFFF" points="59.029,44.818 40.502,44.818 36.015,52.627 63.944,52.627 		"/>
		<polygon fill="#FFFFFF" points="79.045,52.627 90.097,52.627 90.097,44.818 74.129,44.818 		"/>
	</g>
</g>
</svg>
